<svg width="88" height="94" viewBox="0 0 88 94" fill="none" xmlns="http://www.w3.org/2000/svg">
	<rect x="16" width="56" height="56" rx="16" fill="url(#paint0_linear_68_10820)"/>
	<path d="M47.2551 44.8H46.7914C45.9875 44.8 45.2146 44.7229 44.4725 44.5686C43.7305 44.4143 43.0658 44.1367 42.4783 43.7355C41.9218 43.3344 41.4581 42.7791 41.0871 42.0694C40.747 41.3598 40.5769 40.4342 40.5769 39.2926V11.2H41.3189C42.061 11.2 42.7875 11.2926 43.4986 11.4777C44.2097 11.632 44.8436 11.9251 45.4001 12.357C45.9566 12.7581 46.4049 13.3135 46.745 14.0232C47.0851 14.7328 47.2551 15.643 47.2551 16.7537V44.8ZM30.5596 15.7818C30.5596 15.2573 30.6523 14.7328 30.8378 14.2083C31.0233 13.6838 31.3171 13.2055 31.719 12.7736C32.1209 12.3416 32.6156 12.0022 33.203 11.7554C33.7905 11.4777 34.4861 11.3389 35.29 11.3389C36.1248 11.3389 36.8359 11.4931 37.4233 11.8017C38.0107 12.0793 38.4745 12.4342 38.8146 12.8661C39.1856 13.2672 39.4484 13.7146 39.603 14.2083C39.7885 14.6711 39.8813 15.0876 39.8813 15.4579C39.8813 15.7047 39.8658 15.9361 39.8349 16.1521C39.8349 16.3372 39.7885 16.5532 39.6958 16.8C39.2629 16.4298 38.7682 16.2446 38.2117 16.2446C37.7479 16.2446 37.3615 16.3989 37.0523 16.7074C36.7431 16.9851 36.5885 17.4171 36.5885 18.0033V20.2711C36.3412 20.3328 36.032 20.3636 35.661 20.3636C35.2281 20.3636 34.718 20.3174 34.1306 20.2248C33.5431 20.1014 32.9866 19.87 32.461 19.5306C31.9354 19.1912 31.4871 18.7284 31.1161 18.1422C30.7451 17.5559 30.5596 16.7692 30.5596 15.7818ZM57.3188 15.7818C57.3188 16.7692 57.1333 17.5559 56.7623 18.1422C56.3913 18.7284 55.943 19.1912 55.4174 19.5306C54.8918 19.87 54.3353 20.1014 53.7479 20.2248C53.1604 20.3174 52.6503 20.3636 52.2174 20.3636C51.8464 20.3636 51.5372 20.3328 51.2899 20.2711V18.1422C51.2899 17.4942 51.1353 17.016 50.8261 16.7074C50.517 16.3989 50.1305 16.2446 49.6667 16.2446C49.0793 16.2446 48.5846 16.4298 48.1827 16.8C48.0899 16.5532 48.0281 16.3372 47.9972 16.1521C47.9972 15.9361 47.9972 15.7047 47.9972 15.4579C47.9972 15.0876 48.0745 14.6711 48.229 14.2083C48.4145 13.7146 48.6773 13.2672 49.0174 12.8661C49.3885 12.4342 49.8522 12.0793 50.4087 11.8017C50.9962 11.4931 51.6918 11.3389 52.4957 11.3389C53.3305 11.3389 54.0416 11.4777 54.629 11.7554C55.2474 12.0331 55.742 12.3879 56.1131 12.8198C56.515 13.2209 56.8087 13.6992 56.9942 14.2546C57.2106 14.7791 57.3188 15.2882 57.3188 15.7818Z" fill="white"/>
	<path d="M1.11804 73.9901V71.4545H13.0641V73.9901H8.61094V86H5.57117V73.9901H1.11804ZM13.9418 86V75.0909H16.875V76.9943H16.9886C17.1875 76.3172 17.5213 75.8059 17.9901 75.4602C18.4588 75.1098 18.9986 74.9347 19.6094 74.9347C19.7609 74.9347 19.9242 74.9441 20.0994 74.9631C20.2746 74.982 20.4285 75.008 20.5611 75.0412V77.7259C20.419 77.6832 20.2225 77.6454 19.9716 77.6122C19.7206 77.5791 19.491 77.5625 19.2827 77.5625C18.8376 77.5625 18.4399 77.6596 18.0895 77.8537C17.7438 78.0431 17.4692 78.3082 17.2656 78.6491C17.0668 78.9901 16.9673 79.383 16.9673 79.8281V86H13.9418ZM25.0237 86.206C24.3276 86.206 23.7074 86.0852 23.1629 85.8438C22.6183 85.5975 22.1875 85.2353 21.8702 84.7571C21.5577 84.2741 21.4015 83.6728 21.4015 82.9531C21.4015 82.3471 21.5128 81.8381 21.7353 81.4261C21.9578 81.0142 22.2609 80.6828 22.6444 80.4318C23.0279 80.1809 23.4635 79.9915 23.9512 79.8636C24.4436 79.7358 24.9597 79.6458 25.4995 79.5938C26.134 79.5275 26.6453 79.4659 27.0336 79.4091C27.4219 79.3475 27.7036 79.2576 27.8788 79.1392C28.054 79.0208 28.1416 78.8456 28.1416 78.6136V78.571C28.1416 78.1212 27.9995 77.7732 27.7154 77.527C27.4361 77.2808 27.0383 77.1577 26.5222 77.1577C25.9777 77.1577 25.5445 77.2784 25.2225 77.5199C24.9005 77.7566 24.6875 78.0549 24.5833 78.4148L21.785 78.1875C21.9271 77.5246 22.2064 76.9517 22.6231 76.4688C23.0398 75.9811 23.5772 75.607 24.2353 75.3466C24.8982 75.0814 25.6652 74.9489 26.5364 74.9489C27.1425 74.9489 27.7225 75.0199 28.2765 75.1619C28.8352 75.304 29.33 75.5241 29.7609 75.8224C30.1965 76.1207 30.5398 76.5043 30.7907 76.973C31.0416 77.437 31.1671 77.9934 31.1671 78.642V86H28.2978V84.4872H28.2126C28.0374 84.8281 27.803 85.1288 27.5094 85.3892C27.2159 85.6449 26.8631 85.8461 26.4512 85.9929C26.0393 86.1349 25.5634 86.206 25.0237 86.206ZM25.8901 84.1179C26.3352 84.1179 26.7282 84.0303 27.0691 83.8551C27.41 83.6752 27.6775 83.4337 27.8717 83.1307C28.0658 82.8277 28.1629 82.4844 28.1629 82.1009V80.9432C28.0682 81.0047 27.938 81.0616 27.7722 81.1136C27.6112 81.161 27.429 81.206 27.2254 81.2486C27.0218 81.2865 26.8182 81.322 26.6146 81.3551C26.411 81.3835 26.2263 81.4096 26.0606 81.4332C25.7055 81.4853 25.3953 81.5682 25.1302 81.6818C24.865 81.7955 24.6591 81.9493 24.5123 82.1435C24.3655 82.3329 24.2921 82.5696 24.2921 82.8537C24.2921 83.2656 24.4413 83.5805 24.7396 83.7983C25.0426 84.0114 25.4261 84.1179 25.8901 84.1179ZM36.64 79.6932V86H33.6144V75.0909H36.4979V77.0156H36.6258C36.8673 76.3812 37.2721 75.8793 37.8403 75.5099C38.4085 75.1359 39.0974 74.9489 39.907 74.9489C40.6646 74.9489 41.3251 75.1146 41.8886 75.446C42.452 75.7775 42.89 76.2509 43.2025 76.8665C43.515 77.4773 43.6712 78.2064 43.6712 79.054V86H40.6457V79.5938C40.6504 78.9261 40.4799 78.4053 40.1343 78.0312C39.7887 77.6525 39.3128 77.4631 38.7067 77.4631C38.2996 77.4631 37.9397 77.5507 37.6272 77.7259C37.3194 77.901 37.078 78.1567 36.9028 78.4929C36.7323 78.8243 36.6447 79.2244 36.64 79.6932ZM55.2325 78.2017L52.4626 78.3722C52.4153 78.1354 52.3135 77.9223 52.1572 77.733C52.001 77.5388 51.795 77.3849 51.5393 77.2713C51.2884 77.1529 50.9877 77.0938 50.6374 77.0938C50.1686 77.0938 49.7733 77.1932 49.4513 77.392C49.1293 77.5862 48.9683 77.8466 48.9683 78.1733C48.9683 78.4337 49.0725 78.6539 49.2808 78.8338C49.4892 79.0137 49.8466 79.1581 50.3533 79.267L52.3277 79.6648C53.3883 79.8826 54.179 80.233 54.6999 80.7159C55.2207 81.1989 55.4811 81.8333 55.4811 82.6193C55.4811 83.3343 55.2704 83.9616 54.849 84.5014C54.4323 85.0412 53.8594 85.4626 53.1303 85.7656C52.4058 86.0639 51.5701 86.2131 50.6232 86.2131C49.179 86.2131 48.0285 85.9124 47.1715 85.3111C46.3192 84.705 45.8197 83.8812 45.6729 82.8395L48.6487 82.6832C48.7387 83.1236 48.9565 83.4598 49.3021 83.6918C49.6478 83.919 50.0905 84.0327 50.6303 84.0327C51.1606 84.0327 51.5867 83.9309 51.9087 83.7273C52.2354 83.5189 52.4011 83.2514 52.4058 82.9247C52.4011 82.6501 52.2851 82.4252 52.0578 82.25C51.8305 82.0701 51.4802 81.9328 51.0067 81.8381L49.1175 81.4616C48.0521 81.2486 47.259 80.8793 46.7382 80.3537C46.2221 79.8281 45.9641 79.1581 45.9641 78.3438C45.9641 77.643 46.1535 77.0393 46.5322 76.5327C46.9158 76.026 47.4532 75.6354 48.1445 75.3608C48.8405 75.0862 49.6549 74.9489 50.5876 74.9489C51.9655 74.9489 53.0498 75.2401 53.8405 75.8224C54.6359 76.4048 55.1 77.1979 55.2325 78.2017ZM60.5971 86.206C59.9011 86.206 59.2808 86.0852 58.7363 85.8438C58.1918 85.5975 57.7609 85.2353 57.4437 84.7571C57.1312 84.2741 56.9749 83.6728 56.9749 82.9531C56.9749 82.3471 57.0862 81.8381 57.3087 81.4261C57.5313 81.0142 57.8343 80.6828 58.2178 80.4318C58.6014 80.1809 59.037 79.9915 59.5246 79.8636C60.0171 79.7358 60.5332 79.6458 61.0729 79.5938C61.7074 79.5275 62.2188 79.4659 62.607 79.4091C62.9953 79.3475 63.277 79.2576 63.4522 79.1392C63.6274 79.0208 63.715 78.8456 63.715 78.6136V78.571C63.715 78.1212 63.5729 77.7732 63.2889 77.527C63.0095 77.2808 62.6118 77.1577 62.0957 77.1577C61.5512 77.1577 61.1179 77.2784 60.796 77.5199C60.474 77.7566 60.2609 78.0549 60.1567 78.4148L57.3585 78.1875C57.5005 77.5246 57.7799 76.9517 58.1965 76.4688C58.6132 75.9811 59.1506 75.607 59.8087 75.3466C60.4716 75.0814 61.2387 74.9489 62.1099 74.9489C62.7159 74.9489 63.296 75.0199 63.8499 75.1619C64.4086 75.304 64.9034 75.5241 65.3343 75.8224C65.7699 76.1207 66.1132 76.5043 66.3641 76.973C66.6151 77.437 66.7406 77.9934 66.7406 78.642V86H63.8712V84.4872H63.786C63.6108 84.8281 63.3764 85.1288 63.0829 85.3892C62.7893 85.6449 62.4366 85.8461 62.0246 85.9929C61.6127 86.1349 61.1369 86.206 60.5971 86.206ZM61.4636 84.1179C61.9086 84.1179 62.3016 84.0303 62.6425 83.8551C62.9835 83.6752 63.251 83.4337 63.4451 83.1307C63.6392 82.8277 63.7363 82.4844 63.7363 82.1009V80.9432C63.6416 81.0047 63.5114 81.0616 63.3457 81.1136C63.1847 81.161 63.0024 81.206 62.7988 81.2486C62.5952 81.2865 62.3916 81.322 62.188 81.3551C61.9844 81.3835 61.7997 81.4096 61.634 81.4332C61.2789 81.4853 60.9688 81.5682 60.7036 81.6818C60.4385 81.7955 60.2325 81.9493 60.0857 82.1435C59.9389 82.3329 59.8656 82.5696 59.8656 82.8537C59.8656 83.2656 60.0147 83.5805 60.313 83.7983C60.616 84.0114 60.9996 84.1179 61.4636 84.1179ZM74.1168 86.2131C72.9994 86.2131 72.0382 85.9763 71.2333 85.5028C70.4331 85.0246 69.8176 84.3617 69.3867 83.5142C68.9606 82.6667 68.7475 81.6913 68.7475 80.5881C68.7475 79.4706 68.9629 78.4905 69.3938 77.6477C69.8294 76.8002 70.4473 76.1397 71.2475 75.6662C72.0477 75.188 72.9994 74.9489 74.1026 74.9489C75.0543 74.9489 75.8877 75.1217 76.6026 75.4673C77.3176 75.813 77.8834 76.2983 78.3001 76.9233C78.7167 77.5483 78.9464 78.2822 78.989 79.125H76.1339C76.0534 78.5805 75.8403 78.1425 75.4947 77.8111C75.1538 77.4749 74.7063 77.3068 74.1523 77.3068C73.6836 77.3068 73.274 77.4347 72.9237 77.6903C72.578 77.9413 72.3081 78.3082 72.114 78.7912C71.9199 79.2741 71.8228 79.8589 71.8228 80.5455C71.8228 81.2415 71.9175 81.8333 72.1069 82.321C72.301 82.8087 72.5733 83.1804 72.9237 83.4361C73.274 83.6918 73.6836 83.8196 74.1523 83.8196C74.498 83.8196 74.8081 83.7486 75.0827 83.6065C75.3621 83.4645 75.5917 83.2585 75.7717 82.9886C75.9563 82.714 76.0771 82.3849 76.1339 82.0014H78.989C78.9416 82.8348 78.7144 83.5687 78.3072 84.2031C77.9047 84.8329 77.3484 85.3253 76.6381 85.6804C75.9279 86.0355 75.0875 86.2131 74.1168 86.2131ZM86.8287 75.0909V77.3636H80.2591V75.0909H86.8287ZM81.7506 72.4773H84.7761V82.6477C84.7761 82.9271 84.8187 83.1449 84.904 83.3011C84.9892 83.4527 85.1076 83.5592 85.2591 83.6207C85.4153 83.6823 85.5953 83.7131 85.7989 83.7131C85.9409 83.7131 86.083 83.7012 86.225 83.6776C86.367 83.6491 86.4759 83.6278 86.5517 83.6136L87.0276 85.8651C86.876 85.9124 86.663 85.9669 86.3884 86.0284C86.1137 86.0947 85.7799 86.1349 85.3869 86.1491C84.6578 86.1776 84.0186 86.0805 83.4693 85.858C82.9248 85.6354 82.501 85.2898 82.198 84.821C81.895 84.3523 81.7458 83.7604 81.7506 83.0455V72.4773Z" fill="url(#paint1_linear_68_10820)"/>
	<defs>
		<linearGradient id="paint0_linear_68_10820" x1="16" y1="43.3901" x2="88.4497" y2="29.3573" gradientUnits="userSpaceOnUse">
			<stop stop-color="#2754C8"/>
			<stop offset="1" stop-color="#110F72"/>
		</linearGradient>
		<linearGradient id="paint1_linear_68_10820" x1="2.72511e-06" y1="87.2447" x2="89.2957" y2="36.5107" gradientUnits="userSpaceOnUse">
			<stop stop-color="#2754C8"/>
			<stop offset="1" stop-color="#110F72"/>
		</linearGradient>
	</defs>
</svg>
