<svg width="24" height="24" viewBox="0 0 24 24" fill="none" xmlns="http://www.w3.org/2000/svg">
<path fill-rule="evenodd" clip-rule="evenodd" d="M21.3775 2.62248C20.8809 2.12584 20.0757 2.12584 19.579 2.62248L12 10.2015L4.42099 2.62248C3.92435 2.12584 3.11913 2.12584 2.62248 2.62248C2.12584 3.11913 2.12584 3.92435 2.62248 4.42099L10.2015 12L2.62248 19.579C2.12584 20.0757 2.12584 20.8809 2.62248 21.3775C3.11913 21.8742 3.92435 21.8742 4.42099 21.3775L12 13.7985L19.579 21.3775C20.0757 21.8742 20.8809 21.8742 21.3775 21.3775C21.8742 20.8809 21.8742 20.0757 21.3775 19.579L13.7985 12L21.3775 4.42099C21.8742 3.92435 21.8742 3.11913 21.3775 2.62248Z" fill="url(#paint0_linear_479_1781)"/>
<defs>
<linearGradient id="paint0_linear_479_1781" x1="21.75" y1="17.359" x2="-3.47801" y2="12.4726" gradientUnits="userSpaceOnUse">
<stop stop-color="#2754C8"/>
<stop offset="1" stop-color="#110F72"/>
</linearGradient>
</defs>
</svg>
