<svg width="20" height="20" viewBox="0 0 20 20" fill="none" xmlns="http://www.w3.org/2000/svg">
<path fill-rule="evenodd" clip-rule="evenodd" d="M19.3775 0.622484C18.8809 0.125839 18.0757 0.125839 17.579 0.622484L10 8.20149L2.42099 0.622484C1.92435 0.125839 1.11913 0.125839 0.622484 0.622484C0.125839 1.11913 0.125839 1.92435 0.622484 2.42099L8.20149 10L0.622484 17.579C0.125839 18.0757 0.125839 18.8809 0.622484 19.3775C1.11913 19.8742 1.92435 19.8742 2.42099 19.3775L10 11.7985L17.579 19.3775C18.0757 19.8742 18.8809 19.8742 19.3775 19.3775C19.8742 18.8809 19.8742 18.0757 19.3775 17.579L11.7985 10L19.3775 2.42099C19.8742 1.92435 19.8742 1.11913 19.3775 0.622484Z" fill="url(#paint0_linear_753_1749)"/>
<defs>
<linearGradient id="paint0_linear_753_1749" x1="19.75" y1="15.359" x2="-5.47801" y2="10.4726" gradientUnits="userSpaceOnUse">
<stop stop-color="#2754C8"/>
<stop offset="1" stop-color="#110F72"/>
</linearGradient>
</defs>
</svg>
