<svg width="44" height="44" viewBox="0 0 44 44" fill="none" xmlns="http://www.w3.org/2000/svg">
<rect width="44" height="44" rx="22" fill="#F0FFF2"/>
<path d="M23.6389 30.6954L22.8682 30.0582V30.0582L23.6389 30.6954ZM20.5563 30.6954L19.7856 31.3327V31.3327L20.5563 30.6954ZM30.1713 22.7958L29.4006 22.1585H29.4006L30.1713 22.7958ZM14.0239 22.7958L14.7945 22.1585L14.0239 22.7958ZM22.8682 30.0582C22.4683 30.5418 21.7269 30.5418 21.3269 30.0582L19.7856 31.3327C20.9855 32.7836 23.2097 32.7836 24.4095 31.3327L22.8682 30.0582ZM29.4006 22.1585L22.8682 30.0582L24.4095 31.3327L30.9419 23.433L29.4006 22.1585ZM28.63 20.5212C29.476 20.5212 29.9398 21.5065 29.4006 22.1585L30.9419 23.433C32.5594 21.477 31.1682 18.5212 28.63 18.5212V20.5212ZM28.1093 20.5212H28.63V18.5212H28.1093V20.5212ZM25.1093 14.25V17.5212H27.1093L27.1093 14.25H25.1093ZM20.0859 13.25H24.1093V11.25H20.0859V13.25ZM19.0859 17.5212V14.25H17.0859V17.5212H19.0859ZM15.5652 20.5212H16.0859V18.5212H15.5652V20.5212ZM14.7945 22.1585C14.2554 21.5065 14.7191 20.5212 15.5652 20.5212V18.5212C13.027 18.5212 11.6357 21.477 13.2532 23.433L14.7945 22.1585ZM21.3269 30.0582L14.7945 22.1585L13.2532 23.433L19.7856 31.3327L21.3269 30.0582ZM17.0859 17.5212C17.0859 18.0735 16.6381 18.5212 16.0859 18.5212V20.5212C17.7427 20.5212 19.0859 19.1781 19.0859 17.5212H17.0859ZM20.0859 11.25C18.429 11.25 17.0859 12.5932 17.0859 14.25H19.0859C19.0859 13.6977 19.5336 13.25 20.0859 13.25V11.25ZM27.1093 14.25C27.1093 12.5932 25.7661 11.25 24.1093 11.25V13.25C24.6616 13.25 25.1093 13.6977 25.1093 14.25H27.1093ZM28.1093 18.5212C27.557 18.5212 27.1093 18.0735 27.1093 17.5212H25.1093C25.1093 19.1781 26.4524 20.5212 28.1093 20.5212V18.5212Z" fill="#19BD56"/>
</svg>
