<svg width="20" height="20" viewBox="0 0 20 20" fill="none" xmlns="http://www.w3.org/2000/svg">
<mask id="path-1-inside-1_72_21127" fill="white">
<path fill-rule="evenodd" clip-rule="evenodd" d="M1.25 3.75C1.25 3.40482 1.52982 3.125 1.875 3.125H18.125C18.4702 3.125 18.75 3.40482 18.75 3.75C18.75 4.09518 18.4702 4.375 18.125 4.375H1.875C1.52982 4.375 1.25 4.09518 1.25 3.75ZM4.375 10C4.375 9.65482 4.65482 9.375 5 9.375H15C15.3452 9.375 15.625 9.65482 15.625 10C15.625 10.3452 15.3452 10.625 15 10.625H5C4.65482 10.625 4.375 10.3452 4.375 10ZM8.125 15.625C7.77982 15.625 7.5 15.9048 7.5 16.25C7.5 16.5952 7.77982 16.875 8.125 16.875H11.875C12.2202 16.875 12.5 16.5952 12.5 16.25C12.5 15.9048 12.2202 15.625 11.875 15.625H8.125Z"/>
</mask>
<path fill-rule="evenodd" clip-rule="evenodd" d="M1.25 3.75C1.25 3.40482 1.52982 3.125 1.875 3.125H18.125C18.4702 3.125 18.75 3.40482 18.75 3.75C18.75 4.09518 18.4702 4.375 18.125 4.375H1.875C1.52982 4.375 1.25 4.09518 1.25 3.75ZM4.375 10C4.375 9.65482 4.65482 9.375 5 9.375H15C15.3452 9.375 15.625 9.65482 15.625 10C15.625 10.3452 15.3452 10.625 15 10.625H5C4.65482 10.625 4.375 10.3452 4.375 10ZM8.125 15.625C7.77982 15.625 7.5 15.9048 7.5 16.25C7.5 16.5952 7.77982 16.875 8.125 16.875H11.875C12.2202 16.875 12.5 16.5952 12.5 16.25C12.5 15.9048 12.2202 15.625 11.875 15.625H8.125Z" fill="#D9D9D9"/>
<path d="M1.875 2.125C0.977537 2.125 0.25 2.85254 0.25 3.75H2.25C2.25 3.95711 2.08211 4.125 1.875 4.125V2.125ZM18.125 2.125H1.875V4.125H18.125V2.125ZM19.75 3.75C19.75 2.85254 19.0225 2.125 18.125 2.125V4.125C17.9179 4.125 17.75 3.95711 17.75 3.75H19.75ZM18.125 5.375C19.0225 5.375 19.75 4.64746 19.75 3.75H17.75C17.75 3.54289 17.9179 3.375 18.125 3.375V5.375ZM1.875 5.375H18.125V3.375H1.875V5.375ZM0.25 3.75C0.25 4.64746 0.977536 5.375 1.875 5.375V3.375C2.08211 3.375 2.25 3.54289 2.25 3.75H0.25ZM5 8.375C4.10254 8.375 3.375 9.10254 3.375 10H5.375C5.375 10.2071 5.20711 10.375 5 10.375V8.375ZM15 8.375H5V10.375H15V8.375ZM16.625 10C16.625 9.10254 15.8975 8.375 15 8.375V10.375C14.7929 10.375 14.625 10.2071 14.625 10H16.625ZM15 11.625C15.8975 11.625 16.625 10.8975 16.625 10H14.625C14.625 9.79289 14.7929 9.625 15 9.625V11.625ZM5 11.625H15V9.625H5V11.625ZM3.375 10C3.375 10.8975 4.10254 11.625 5 11.625V9.625C5.20711 9.625 5.375 9.79289 5.375 10H3.375ZM8.5 16.25C8.5 16.4571 8.33211 16.625 8.125 16.625V14.625C7.22754 14.625 6.5 15.3525 6.5 16.25H8.5ZM8.125 15.875C8.33211 15.875 8.5 16.0429 8.5 16.25H6.5C6.5 17.1475 7.22754 17.875 8.125 17.875V15.875ZM11.875 15.875H8.125V17.875H11.875V15.875ZM11.5 16.25C11.5 16.0429 11.6679 15.875 11.875 15.875V17.875C12.7725 17.875 13.5 17.1475 13.5 16.25H11.5ZM11.875 16.625C11.6679 16.625 11.5 16.4571 11.5 16.25H13.5C13.5 15.3525 12.7725 14.625 11.875 14.625V16.625ZM8.125 16.625H11.875V14.625H8.125V16.625Z" fill="#2754C8" mask="url(#path-1-inside-1_72_21127)"/>
</svg>
