<svg width="329" height="240" viewBox="0 0 329 240" fill="none" xmlns="http://www.w3.org/2000/svg">
	<path d="M292.017 180.565H173.363C172.343 180.563 171.366 180.157 170.644 179.436C169.923 178.715 169.517 177.737 169.516 176.717V3.84763C169.519 2.82884 169.926 1.85286 170.647 1.13308C171.368 0.413292 172.344 0.00826046 173.363 0.00653076H292.017C293.036 0.00826046 294.013 0.413292 294.734 1.13308C295.455 1.85286 295.861 2.82884 295.865 3.84763V176.717C295.863 177.737 295.457 178.715 294.736 179.436C294.015 180.157 293.037 180.563 292.017 180.565ZM173.363 0.17068C172.878 0.167219 172.397 0.259721 171.947 0.442874C171.498 0.626027 171.089 0.896219 170.744 1.23791C170.399 1.57961 170.125 1.98607 169.938 2.43394C169.751 2.8818 169.654 3.36224 169.654 3.84763V176.717C169.654 177.694 170.042 178.631 170.732 179.322C171.423 180.012 172.36 180.4 173.337 180.4H292.017C292.994 180.4 293.931 180.012 294.622 179.322C295.313 178.631 295.701 177.694 295.701 176.717V3.84763C295.701 2.8707 295.313 1.93379 294.622 1.24299C293.931 0.5522 292.994 0.164113 292.017 0.164113L173.363 0.17068Z" fill="#F0F0F0"/>
	<path d="M155.163 180.565H36.4824C35.4625 180.563 34.4848 180.157 33.7636 179.436C33.0424 178.715 32.6365 177.737 32.6348 176.717V3.84767C32.6365 2.82774 33.0424 1.85008 33.7636 1.12887C34.4848 0.407673 35.4625 0.00173606 36.4824 0H155.163C156.183 0.00173606 157.16 0.407673 157.881 1.12887C158.603 1.85008 159.009 2.82774 159.01 3.84767V176.717C159.009 177.737 158.603 178.715 157.881 179.436C157.16 180.157 156.183 180.563 155.163 180.565ZM36.4824 0.170717C35.5066 0.170716 34.5707 0.557899 33.8801 1.24727C33.1895 1.93665 32.8007 2.87188 32.7989 3.84767V176.717C32.7989 177.694 33.187 178.631 33.8778 179.322C34.5686 180.012 35.5055 180.401 36.4824 180.401H155.163C156.14 180.401 157.077 180.012 157.767 179.322C158.458 178.631 158.846 177.694 158.846 176.717V3.84767C158.846 2.87074 158.458 1.93382 157.767 1.24303C157.077 0.552236 156.14 0.16415 155.163 0.16415L36.4824 0.170717Z" fill="#F0F0F0"/>
	<path d="M328.321 220.663H0.0214844V220.827H328.321V220.663Z" fill="#F0F0F0"/>
	<path d="M116.062 130.243V16.0276L38.7349 16.0276V130.243H116.062Z" fill="#F5F5F5"/>
	<path d="M112.779 19.304H42.0107V126.96H112.779V19.304Z" fill="#FAFAFA"/>
	<path d="M69.9684 126.947V68.7918H67.5455L63.3958 61.6021L59.6795 55.174V43.3027H58.7996V55.174L55.0833 61.6021L50.9336 68.7918H48.5107V126.947H69.9684Z" fill="#F5F5F5"/>
	<path d="M51.5905 54.0052H42.0107V126.94H51.5905V54.0052Z" fill="#F5F5F5"/>
	<path d="M97.0473 106.034V53.132L76.0361 61.7663V106.034H97.0473Z" fill="#F5F5F5"/>
	<path d="M112.779 68.7919H91.3281V126.94H112.779V68.7919Z" fill="#F0F0F0"/>
	<path d="M97.0799 72.3506H93.751V73.9134H97.0799V72.3506Z" fill="#F5F5F5"/>
	<path d="M103.718 72.3506H100.389V73.9134H103.718V72.3506Z" fill="#F5F5F5"/>
	<path d="M110.363 72.3506H107.034V73.9134H110.363V72.3506Z" fill="#F5F5F5"/>
	<path d="M97.0799 76.2114H93.751V77.7741H97.0799V76.2114Z" fill="#F5F5F5"/>
	<path d="M103.718 76.2114H100.389V77.7741H103.718V76.2114Z" fill="#F5F5F5"/>
	<path d="M110.363 76.2114H107.034V77.7741H110.363V76.2114Z" fill="#F5F5F5"/>
	<path d="M97.0799 80.0789H93.751V81.6416H97.0799V80.0789Z" fill="#F5F5F5"/>
	<path d="M103.718 80.0789H100.389V81.6416H103.718V80.0789Z" fill="#F5F5F5"/>
	<path d="M110.363 80.0789H107.034V81.6416H110.363V80.0789Z" fill="#F5F5F5"/>
	<path d="M97.0799 83.9396H93.751V85.5023H97.0799V83.9396Z" fill="#F5F5F5"/>
	<path d="M103.718 83.9396H100.389V85.5023H103.718V83.9396Z" fill="#F5F5F5"/>
	<path d="M110.363 83.9396H107.034V85.5023H110.363V83.9396Z" fill="#F5F5F5"/>
	<path d="M97.0799 87.8069H93.751V89.3696H97.0799V87.8069Z" fill="#F5F5F5"/>
	<path d="M103.718 87.8069H100.389V89.3696H103.718V87.8069Z" fill="#F5F5F5"/>
	<path d="M110.363 87.8069H107.034V89.3696H110.363V87.8069Z" fill="#F5F5F5"/>
	<path d="M97.0799 91.6677H93.751V93.2304H97.0799V91.6677Z" fill="#F5F5F5"/>
	<path d="M103.718 91.6677H100.389V93.2304H103.718V91.6677Z" fill="#F5F5F5"/>
	<path d="M110.363 91.6677H107.034V93.2304H110.363V91.6677Z" fill="#F5F5F5"/>
	<path d="M97.0799 95.5351H93.751V97.0978H97.0799V95.5351Z" fill="#F5F5F5"/>
	<path d="M103.718 95.5351H100.389V97.0978H103.718V95.5351Z" fill="#F5F5F5"/>
	<path d="M110.363 95.5351H107.034V97.0978H110.363V95.5351Z" fill="#F5F5F5"/>
	<path d="M97.0799 99.396H93.751V100.959H97.0799V99.396Z" fill="#F5F5F5"/>
	<path d="M103.718 99.396H100.389V100.959H103.718V99.396Z" fill="#F5F5F5"/>
	<path d="M110.363 99.396H107.034V100.959H110.363V99.396Z" fill="#F5F5F5"/>
	<path d="M97.0799 103.263H93.751V104.826H97.0799V103.263Z" fill="#F5F5F5"/>
	<path d="M103.718 103.263H100.389V104.826H103.718V103.263Z" fill="#F5F5F5"/>
	<path d="M110.363 103.263H107.034V104.826H110.363V103.263Z" fill="#F5F5F5"/>
	<path d="M97.0799 107.124H93.751V108.687H97.0799V107.124Z" fill="#F5F5F5"/>
	<path d="M103.718 107.124H100.389V108.687H103.718V107.124Z" fill="#F5F5F5"/>
	<path d="M110.363 107.124H107.034V108.687H110.363V107.124Z" fill="#F5F5F5"/>
	<path d="M97.0799 110.985H93.751V112.548H97.0799V110.985Z" fill="#F5F5F5"/>
	<path d="M103.718 110.985H100.389V112.548H103.718V110.985Z" fill="#F5F5F5"/>
	<path d="M110.363 110.985H107.034V112.548H110.363V110.985Z" fill="#F5F5F5"/>
	<path d="M97.0799 114.852H93.751V116.415H97.0799V114.852Z" fill="#F5F5F5"/>
	<path d="M103.718 114.852H100.389V116.415H103.718V114.852Z" fill="#F5F5F5"/>
	<path d="M110.363 114.852H107.034V116.415H110.363V114.852Z" fill="#F5F5F5"/>
	<path d="M63.4618 68.7919H42.0107V126.94H63.4618V68.7919Z" fill="#F0F0F0"/>
	<path d="M47.7625 72.3506H44.4336V73.9134H47.7625V72.3506Z" fill="#F5F5F5"/>
	<path d="M54.4012 72.3506H51.0723V73.9134H54.4012V72.3506Z" fill="#F5F5F5"/>
	<path d="M61.0458 72.3506H57.7168V73.9134H61.0458V72.3506Z" fill="#F5F5F5"/>
	<path d="M47.7625 76.2114H44.4336V77.7741H47.7625V76.2114Z" fill="#F5F5F5"/>
	<path d="M54.4012 76.2114H51.0723V77.7741H54.4012V76.2114Z" fill="#F5F5F5"/>
	<path d="M61.0458 76.2114H57.7168V77.7741H61.0458V76.2114Z" fill="#F5F5F5"/>
	<path d="M47.7625 80.0789H44.4336V81.6416H47.7625V80.0789Z" fill="#F5F5F5"/>
	<path d="M54.4012 80.0789H51.0723V81.6416H54.4012V80.0789Z" fill="#F5F5F5"/>
	<path d="M61.0458 80.0789H57.7168V81.6416H61.0458V80.0789Z" fill="#F5F5F5"/>
	<path d="M47.7625 83.9396H44.4336V85.5023H47.7625V83.9396Z" fill="#F5F5F5"/>
	<path d="M54.4012 83.9396H51.0723V85.5023H54.4012V83.9396Z" fill="#F5F5F5"/>
	<path d="M61.0458 83.9396H57.7168V85.5023H61.0458V83.9396Z" fill="#F5F5F5"/>
	<path d="M47.7625 87.8069H44.4336V89.3696H47.7625V87.8069Z" fill="#F5F5F5"/>
	<path d="M54.4012 87.8069H51.0723V89.3696H54.4012V87.8069Z" fill="#F5F5F5"/>
	<path d="M61.0458 87.8069H57.7168V89.3696H61.0458V87.8069Z" fill="#F5F5F5"/>
	<path d="M47.7625 91.6677H44.4336V93.2304H47.7625V91.6677Z" fill="#F5F5F5"/>
	<path d="M54.4012 91.6677H51.0723V93.2304H54.4012V91.6677Z" fill="#F5F5F5"/>
	<path d="M61.0458 91.6677H57.7168V93.2304H61.0458V91.6677Z" fill="#F5F5F5"/>
	<path d="M47.7625 95.5351H44.4336V97.0978H47.7625V95.5351Z" fill="#F5F5F5"/>
	<path d="M54.4012 95.5351H51.0723V97.0978H54.4012V95.5351Z" fill="#F5F5F5"/>
	<path d="M61.0458 95.5351H57.7168V97.0978H61.0458V95.5351Z" fill="#F5F5F5"/>
	<path d="M47.7625 99.396H44.4336V100.959H47.7625V99.396Z" fill="#F5F5F5"/>
	<path d="M54.4012 99.396H51.0723V100.959H54.4012V99.396Z" fill="#F5F5F5"/>
	<path d="M61.0458 99.396H57.7168V100.959H61.0458V99.396Z" fill="#F5F5F5"/>
	<path d="M47.7625 103.263H44.4336V104.826H47.7625V103.263Z" fill="#F5F5F5"/>
	<path d="M54.4012 103.263H51.0723V104.826H54.4012V103.263Z" fill="#F5F5F5"/>
	<path d="M61.0458 103.263H57.7168V104.826H61.0458V103.263Z" fill="#F5F5F5"/>
	<path d="M47.7625 107.124H44.4336V108.687H47.7625V107.124Z" fill="#F5F5F5"/>
	<path d="M54.4012 107.124H51.0723V108.687H54.4012V107.124Z" fill="#F5F5F5"/>
	<path d="M61.0458 107.124H57.7168V108.687H61.0458V107.124Z" fill="#F5F5F5"/>
	<path d="M47.7625 110.985H44.4336V112.548H47.7625V110.985Z" fill="#F5F5F5"/>
	<path d="M54.4012 110.985H51.0723V112.548H54.4012V110.985Z" fill="#F5F5F5"/>
	<path d="M61.0458 110.985H57.7168V112.548H61.0458V110.985Z" fill="#F5F5F5"/>
	<path d="M47.7625 114.852H44.4336V116.415H47.7625V114.852Z" fill="#F5F5F5"/>
	<path d="M54.4012 114.852H51.0723V116.415H54.4012V114.852Z" fill="#F5F5F5"/>
	<path d="M61.0458 114.852H57.7168V116.415H61.0458V114.852Z" fill="#F5F5F5"/>
	<path d="M102.057 68.7918H93.751L97.9007 61.6021L102.057 54.4058L106.207 61.6021L110.356 68.7918H102.057Z" fill="#F0F0F0"/>
	<path d="M102.49 43.3027H101.61V59.6979H102.49V43.3027Z" fill="#F0F0F0"/>
	<path d="M89.5488 72.3506H66.5547V126.947H89.5488V72.3506Z" fill="#F0F0F0"/>
	<path d="M76.9159 70.4858H68.2422V77.8923H76.9159V70.4858Z" fill="#F0F0F0"/>
	<path d="M71.3478 69.9344H69.0234V76.5857H71.3478V69.9344Z" fill="#F0F0F0"/>
	<path d="M76.1867 69.9344H73.8623V76.5857H76.1867V69.9344Z" fill="#F0F0F0"/>
	<path d="M88.0776 70.5121H82.9102V75.6796H88.0776V70.5121Z" fill="#F0F0F0"/>
	<path d="M73.2586 76.9927H69.9297V78.5554H73.2586V76.9927Z" fill="#F5F5F5"/>
	<path d="M79.8973 76.9927H76.5684V78.5554H79.8973V76.9927Z" fill="#F5F5F5"/>
	<path d="M86.5419 76.9927H83.2129V78.5554H86.5419V76.9927Z" fill="#F5F5F5"/>
	<path d="M73.2586 80.8601H69.9297V82.4228H73.2586V80.8601Z" fill="#F5F5F5"/>
	<path d="M79.8973 80.8601H76.5684V82.4228H79.8973V80.8601Z" fill="#F5F5F5"/>
	<path d="M86.5419 80.8601H83.2129V82.4228H86.5419V80.8601Z" fill="#F5F5F5"/>
	<path d="M73.2586 84.7209H69.9297V86.2837H73.2586V84.7209Z" fill="#F5F5F5"/>
	<path d="M79.8973 84.7209H76.5684V86.2837H79.8973V84.7209Z" fill="#F5F5F5"/>
	<path d="M86.5419 84.7209H83.2129V86.2837H86.5419V84.7209Z" fill="#F5F5F5"/>
	<path d="M73.2586 88.5883H69.9297V90.151H73.2586V88.5883Z" fill="#F5F5F5"/>
	<path d="M79.8973 88.5883H76.5684V90.151H79.8973V88.5883Z" fill="#F5F5F5"/>
	<path d="M86.5419 88.5883H83.2129V90.151H86.5419V88.5883Z" fill="#F5F5F5"/>
	<path d="M73.2586 92.4491H69.9297V94.0118H73.2586V92.4491Z" fill="#F5F5F5"/>
	<path d="M79.8973 92.4491H76.5684V94.0118H79.8973V92.4491Z" fill="#F5F5F5"/>
	<path d="M86.5419 92.4491H83.2129V94.0118H86.5419V92.4491Z" fill="#F5F5F5"/>
	<path d="M73.2586 96.3165H69.9297V97.8792H73.2586V96.3165Z" fill="#F5F5F5"/>
	<path d="M79.8973 96.3165H76.5684V97.8792H79.8973V96.3165Z" fill="#F5F5F5"/>
	<path d="M86.5419 96.3165H83.2129V97.8792H86.5419V96.3165Z" fill="#F5F5F5"/>
	<path d="M73.2586 100.177H69.9297V101.74H73.2586V100.177Z" fill="#F5F5F5"/>
	<path d="M79.8973 100.177H76.5684V101.74H79.8973V100.177Z" fill="#F5F5F5"/>
	<path d="M86.5419 100.177H83.2129V101.74H86.5419V100.177Z" fill="#F5F5F5"/>
	<path d="M73.2586 104.038H69.9297V105.601H73.2586V104.038Z" fill="#F5F5F5"/>
	<path d="M79.8973 104.038H76.5684V105.601H79.8973V104.038Z" fill="#F5F5F5"/>
	<path d="M86.5419 104.038H83.2129V105.601H86.5419V104.038Z" fill="#F5F5F5"/>
	<path d="M73.2586 107.905H69.9297V109.468H73.2586V107.905Z" fill="#F5F5F5"/>
	<path d="M79.8973 107.905H76.5684V109.468H79.8973V107.905Z" fill="#F5F5F5"/>
	<path d="M86.5419 107.905H83.2129V109.468H86.5419V107.905Z" fill="#F5F5F5"/>
	<path d="M73.2586 111.766H69.9297V113.329H73.2586V111.766Z" fill="#F5F5F5"/>
	<path d="M79.8973 111.766H76.5684V113.329H79.8973V111.766Z" fill="#F5F5F5"/>
	<path d="M86.5419 111.766H83.2129V113.329H86.5419V111.766Z" fill="#F5F5F5"/>
	<path d="M73.2586 115.634H69.9297V117.196H73.2586V115.634Z" fill="#F5F5F5"/>
	<path d="M79.8973 115.634H76.5684V117.196H79.8973V115.634Z" fill="#F5F5F5"/>
	<path d="M86.5419 115.634H83.2129V117.196H86.5419V115.634Z" fill="#F5F5F5"/>
	<path d="M73.2586 119.494H69.9297V121.057H73.2586V119.494Z" fill="#F5F5F5"/>
	<path d="M79.8973 119.494H76.5684V121.057H79.8973V119.494Z" fill="#F5F5F5"/>
	<path d="M86.5419 119.494H83.2129V121.057H86.5419V119.494Z" fill="#F5F5F5"/>
	<path opacity="0.2" d="M108.078 19.304L42.0107 85.371V66.3953L89.1086 19.304H108.078Z" fill="white"/>
	<path opacity="0.2" d="M112.779 43.2239V56.763L42.5885 126.96H42.0107V113.992L112.779 43.2239Z" fill="white"/>
	<path d="M289.122 131.051V16.8353L211.794 16.8353V131.051H289.122Z" fill="#F5F5F5"/>
	<path d="M285.839 20.1116H215.07V127.768H285.839V20.1116Z" fill="#FAFAFA"/>
	<path d="M243.028 127.754V69.6061H240.605L236.456 62.4098L232.746 55.9816V44.1104H231.859V55.9816L228.15 62.4098L223.993 69.6061H221.577V127.754H243.028Z" fill="#F5F5F5"/>
	<path d="M224.65 54.8194H215.07V127.754H224.65V54.8194Z" fill="#F5F5F5"/>
	<path d="M270.107 106.842V53.9396L249.096 62.5739V106.842H270.107Z" fill="#F5F5F5"/>
	<path d="M285.839 69.6061H264.388V127.754H285.839V69.6061Z" fill="#F0F0F0"/>
	<path d="M270.14 73.1582H266.811V74.7209H270.14V73.1582Z" fill="#F5F5F5"/>
	<path d="M276.778 73.1582H273.449V74.7209H276.778V73.1582Z" fill="#F5F5F5"/>
	<path d="M283.423 73.1582H280.094V74.7209H283.423V73.1582Z" fill="#F5F5F5"/>
	<path d="M270.14 77.0256H266.811V78.5883H270.14V77.0256Z" fill="#F5F5F5"/>
	<path d="M276.778 77.0256H273.449V78.5883H276.778V77.0256Z" fill="#F5F5F5"/>
	<path d="M283.423 77.0256H280.094V78.5883H283.423V77.0256Z" fill="#F5F5F5"/>
	<path d="M270.14 80.8864H266.811V82.4491H270.14V80.8864Z" fill="#F5F5F5"/>
	<path d="M276.778 80.8864H273.449V82.4491H276.778V80.8864Z" fill="#F5F5F5"/>
	<path d="M283.423 80.8864H280.094V82.4491H283.423V80.8864Z" fill="#F5F5F5"/>
	<path d="M270.14 84.7538H266.811V86.3165H270.14V84.7538Z" fill="#F5F5F5"/>
	<path d="M276.778 84.7538H273.449V86.3165H276.778V84.7538Z" fill="#F5F5F5"/>
	<path d="M283.423 84.7538H280.094V86.3165H283.423V84.7538Z" fill="#F5F5F5"/>
	<path d="M270.14 88.6146H266.811V90.1773H270.14V88.6146Z" fill="#F5F5F5"/>
	<path d="M276.778 88.6146H273.449V90.1773H276.778V88.6146Z" fill="#F5F5F5"/>
	<path d="M283.423 88.6146H280.094V90.1773H283.423V88.6146Z" fill="#F5F5F5"/>
	<path d="M270.14 92.4819H266.811V94.0446H270.14V92.4819Z" fill="#F5F5F5"/>
	<path d="M276.778 92.4819H273.449V94.0446H276.778V92.4819Z" fill="#F5F5F5"/>
	<path d="M283.423 92.4819H280.094V94.0446H283.423V92.4819Z" fill="#F5F5F5"/>
	<path d="M270.14 96.3427H266.811V97.9054H270.14V96.3427Z" fill="#F5F5F5"/>
	<path d="M276.778 96.3427H273.449V97.9054H276.778V96.3427Z" fill="#F5F5F5"/>
	<path d="M283.423 96.3427H280.094V97.9054H283.423V96.3427Z" fill="#F5F5F5"/>
	<path d="M270.14 100.21H266.811V101.773H270.14V100.21Z" fill="#F5F5F5"/>
	<path d="M276.778 100.21H273.449V101.773H276.778V100.21Z" fill="#F5F5F5"/>
	<path d="M283.423 100.21H280.094V101.773H283.423V100.21Z" fill="#F5F5F5"/>
	<path d="M270.14 104.071H266.811V105.634H270.14V104.071Z" fill="#F5F5F5"/>
	<path d="M276.778 104.071H273.449V105.634H276.778V104.071Z" fill="#F5F5F5"/>
	<path d="M283.423 104.071H280.094V105.634H283.423V104.071Z" fill="#F5F5F5"/>
	<path d="M270.14 107.932H266.811V109.494H270.14V107.932Z" fill="#F5F5F5"/>
	<path d="M276.778 107.932H273.449V109.494H276.778V107.932Z" fill="#F5F5F5"/>
	<path d="M283.423 107.932H280.094V109.494H283.423V107.932Z" fill="#F5F5F5"/>
	<path d="M270.14 111.799H266.811V113.362H270.14V111.799Z" fill="#F5F5F5"/>
	<path d="M276.778 111.799H273.449V113.362H276.778V111.799Z" fill="#F5F5F5"/>
	<path d="M283.423 111.799H280.094V113.362H283.423V111.799Z" fill="#F5F5F5"/>
	<path d="M270.14 115.66H266.811V117.223H270.14V115.66Z" fill="#F5F5F5"/>
	<path d="M276.778 115.66H273.449V117.223H276.778V115.66Z" fill="#F5F5F5"/>
	<path d="M283.423 115.66H280.094V117.223H283.423V115.66Z" fill="#F5F5F5"/>
	<path d="M236.521 69.6061H215.07V127.754H236.521V69.6061Z" fill="#F0F0F0"/>
	<path d="M220.822 73.1582H217.493V74.7209H220.822V73.1582Z" fill="#F5F5F5"/>
	<path d="M227.468 73.1582H224.139V74.7209H227.468V73.1582Z" fill="#F5F5F5"/>
	<path d="M234.105 73.1582H230.776V74.7209H234.105V73.1582Z" fill="#F5F5F5"/>
	<path d="M220.822 77.0256H217.493V78.5883H220.822V77.0256Z" fill="#F5F5F5"/>
	<path d="M227.468 77.0256H224.139V78.5883H227.468V77.0256Z" fill="#F5F5F5"/>
	<path d="M234.105 77.0256H230.776V78.5883H234.105V77.0256Z" fill="#F5F5F5"/>
	<path d="M220.822 80.8864H217.493V82.4491H220.822V80.8864Z" fill="#F5F5F5"/>
	<path d="M227.468 80.8864H224.139V82.4491H227.468V80.8864Z" fill="#F5F5F5"/>
	<path d="M234.105 80.8864H230.776V82.4491H234.105V80.8864Z" fill="#F5F5F5"/>
	<path d="M220.822 84.7538H217.493V86.3165H220.822V84.7538Z" fill="#F5F5F5"/>
	<path d="M227.468 84.7538H224.139V86.3165H227.468V84.7538Z" fill="#F5F5F5"/>
	<path d="M234.105 84.7538H230.776V86.3165H234.105V84.7538Z" fill="#F5F5F5"/>
	<path d="M220.822 88.6146H217.493V90.1773H220.822V88.6146Z" fill="#F5F5F5"/>
	<path d="M227.468 88.6146H224.139V90.1773H227.468V88.6146Z" fill="#F5F5F5"/>
	<path d="M234.105 88.6146H230.776V90.1773H234.105V88.6146Z" fill="#F5F5F5"/>
	<path d="M220.822 92.4819H217.493V94.0446H220.822V92.4819Z" fill="#F5F5F5"/>
	<path d="M227.468 92.4819H224.139V94.0446H227.468V92.4819Z" fill="#F5F5F5"/>
	<path d="M234.105 92.4819H230.776V94.0446H234.105V92.4819Z" fill="#F5F5F5"/>
	<path d="M220.822 96.3427H217.493V97.9054H220.822V96.3427Z" fill="#F5F5F5"/>
	<path d="M227.468 96.3427H224.139V97.9054H227.468V96.3427Z" fill="#F5F5F5"/>
	<path d="M234.105 96.3427H230.776V97.9054H234.105V96.3427Z" fill="#F5F5F5"/>
	<path d="M220.822 100.21H217.493V101.773H220.822V100.21Z" fill="#F5F5F5"/>
	<path d="M227.468 100.21H224.139V101.773H227.468V100.21Z" fill="#F5F5F5"/>
	<path d="M234.105 100.21H230.776V101.773H234.105V100.21Z" fill="#F5F5F5"/>
	<path d="M220.822 104.071H217.493V105.634H220.822V104.071Z" fill="#F5F5F5"/>
	<path d="M227.468 104.071H224.139V105.634H227.468V104.071Z" fill="#F5F5F5"/>
	<path d="M234.105 104.071H230.776V105.634H234.105V104.071Z" fill="#F5F5F5"/>
	<path d="M220.822 107.932H217.493V109.494H220.822V107.932Z" fill="#F5F5F5"/>
	<path d="M227.468 107.932H224.139V109.494H227.468V107.932Z" fill="#F5F5F5"/>
	<path d="M234.105 107.932H230.776V109.494H234.105V107.932Z" fill="#F5F5F5"/>
	<path d="M220.822 111.799H217.493V113.362H220.822V111.799Z" fill="#F5F5F5"/>
	<path d="M227.468 111.799H224.139V113.362H227.468V111.799Z" fill="#F5F5F5"/>
	<path d="M234.105 111.799H230.776V113.362H234.105V111.799Z" fill="#F5F5F5"/>
	<path d="M220.822 115.66H217.493V117.223H220.822V115.66Z" fill="#F5F5F5"/>
	<path d="M227.468 115.66H224.139V117.223H227.468V115.66Z" fill="#F5F5F5"/>
	<path d="M234.105 115.66H230.776V117.223H234.105V115.66Z" fill="#F5F5F5"/>
	<path d="M275.117 69.606H266.811L270.96 62.4097L275.117 55.22L279.266 62.4097L283.422 69.606H275.117Z" fill="#F0F0F0"/>
	<path d="M275.557 44.1104H274.677V60.5056H275.557V44.1104Z" fill="#F0F0F0"/>
	<path d="M262.608 73.1582H239.614V127.754H262.608V73.1582Z" fill="#F0F0F0"/>
	<path d="M249.982 71.2935H241.309V78.7H249.982V71.2935Z" fill="#F0F0F0"/>
	<path d="M244.407 70.7485H242.083V77.3999H244.407V70.7485Z" fill="#F0F0F0"/>
	<path d="M249.253 70.7485H246.929V77.3999H249.253V70.7485Z" fill="#F0F0F0"/>
	<path d="M261.144 71.3198H255.977V76.4872H261.144V71.3198Z" fill="#F0F0F0"/>
	<path d="M246.318 77.8069H242.989V79.3697H246.318V77.8069Z" fill="#F5F5F5"/>
	<path d="M252.963 77.8069H249.634V79.3697H252.963V77.8069Z" fill="#F5F5F5"/>
	<path d="M259.601 77.8069H256.272V79.3697H259.601V77.8069Z" fill="#F5F5F5"/>
	<path d="M246.318 81.6678H242.989V83.2305H246.318V81.6678Z" fill="#F5F5F5"/>
	<path d="M252.963 81.6678H249.634V83.2305H252.963V81.6678Z" fill="#F5F5F5"/>
	<path d="M259.601 81.6678H256.272V83.2305H259.601V81.6678Z" fill="#F5F5F5"/>
	<path d="M246.318 85.5352H242.989V87.0979H246.318V85.5352Z" fill="#F5F5F5"/>
	<path d="M252.963 85.5352H249.634V87.0979H252.963V85.5352Z" fill="#F5F5F5"/>
	<path d="M259.601 85.5352H256.272V87.0979H259.601V85.5352Z" fill="#F5F5F5"/>
	<path d="M246.318 89.3959H242.989V90.9586H246.318V89.3959Z" fill="#F5F5F5"/>
	<path d="M252.963 89.3959H249.634V90.9586H252.963V89.3959Z" fill="#F5F5F5"/>
	<path d="M259.601 89.3959H256.272V90.9586H259.601V89.3959Z" fill="#F5F5F5"/>
	<path d="M246.318 93.2632H242.989V94.826H246.318V93.2632Z" fill="#F5F5F5"/>
	<path d="M252.963 93.2632H249.634V94.826H252.963V93.2632Z" fill="#F5F5F5"/>
	<path d="M259.601 93.2632H256.272V94.826H259.601V93.2632Z" fill="#F5F5F5"/>
	<path d="M246.318 97.124H242.989V98.6867H246.318V97.124Z" fill="#F5F5F5"/>
	<path d="M252.963 97.124H249.634V98.6867H252.963V97.124Z" fill="#F5F5F5"/>
	<path d="M259.601 97.124H256.272V98.6867H259.601V97.124Z" fill="#F5F5F5"/>
	<path d="M246.318 100.985H242.989V102.548H246.318V100.985Z" fill="#F5F5F5"/>
	<path d="M252.963 100.985H249.634V102.548H252.963V100.985Z" fill="#F5F5F5"/>
	<path d="M259.601 100.985H256.272V102.548H259.601V100.985Z" fill="#F5F5F5"/>
	<path d="M246.318 104.852H242.989V106.415H246.318V104.852Z" fill="#F5F5F5"/>
	<path d="M252.963 104.852H249.634V106.415H252.963V104.852Z" fill="#F5F5F5"/>
	<path d="M259.601 104.852H256.272V106.415H259.601V104.852Z" fill="#F5F5F5"/>
	<path d="M246.318 108.713H242.989V110.276H246.318V108.713Z" fill="#F5F5F5"/>
	<path d="M252.963 108.713H249.634V110.276H252.963V108.713Z" fill="#F5F5F5"/>
	<path d="M259.601 108.713H256.272V110.276H259.601V108.713Z" fill="#F5F5F5"/>
	<path d="M246.318 112.58H242.989V114.143H246.318V112.58Z" fill="#F5F5F5"/>
	<path d="M252.963 112.58H249.634V114.143H252.963V112.58Z" fill="#F5F5F5"/>
	<path d="M259.601 112.58H256.272V114.143H259.601V112.58Z" fill="#F5F5F5"/>
	<path d="M246.318 116.441H242.989V118.004H246.318V116.441Z" fill="#F5F5F5"/>
	<path d="M252.963 116.441H249.634V118.004H252.963V116.441Z" fill="#F5F5F5"/>
	<path d="M259.601 116.441H256.272V118.004H259.601V116.441Z" fill="#F5F5F5"/>
	<path d="M246.318 120.309H242.989V121.871H246.318V120.309Z" fill="#F5F5F5"/>
	<path d="M252.963 120.309H249.634V121.871H252.963V120.309Z" fill="#F5F5F5"/>
	<path d="M259.601 120.309H256.272V121.871H259.601V120.309Z" fill="#F5F5F5"/>
	<path opacity="0.2" d="M281.137 20.1116L215.07 86.1785V67.2094L262.168 20.1116H281.137Z" fill="white"/>
	<path opacity="0.2" d="M285.845 44.0315V57.5706L215.648 127.768H215.07V114.806L285.845 44.0315Z" fill="white"/>
	<path d="M182.799 149.613H69.0762C69.0762 150.537 69.4435 151.424 70.0974 152.078C70.7512 152.732 71.638 153.099 72.5627 153.099H179.313C180.237 153.099 181.124 152.732 181.778 152.078C182.432 151.424 182.799 150.537 182.799 149.613Z" fill="#F0F0F0"/>
	<path d="M160.461 182.58H92.4375V185.804H160.461V182.58Z" fill="#F0F0F0"/>
	<path d="M158.052 220.748L167.323 153.093H164.066L154.795 220.748H158.052Z" fill="#F0F0F0"/>
	<path d="M165.675 220.748L156.253 153.093H159.51L168.932 220.748H165.675Z" fill="#F0F0F0"/>
	<path d="M87.2372 220.748L96.9023 153.093H93.6456L83.9805 220.748H87.2372Z" fill="#F0F0F0"/>
	<path d="M94.861 220.748L85.5898 153.093H88.8466L98.1177 220.748H94.861Z" fill="#F0F0F0"/>
	<path d="M186.614 144.012H65.2617V149.626H186.614V144.012Z" fill="#F5F5F5"/>
	<path d="M109.017 144.032H161.676L162.247 142.718C162.608 141.911 161.669 141.097 160.369 141.097H111.781C111.414 141.065 111.045 141.134 110.714 141.296C110.384 141.458 110.103 141.706 109.903 142.016L109.017 144.032Z" fill="#E0E0E0"/>
	<path d="M176.095 107.374L169.352 135.883C169.268 136.255 169.061 136.587 168.764 136.826C168.467 137.065 168.098 137.195 167.717 137.196H126.187C125.933 137.195 125.683 137.137 125.454 137.025C125.226 136.914 125.026 136.753 124.869 136.553C124.712 136.354 124.602 136.122 124.547 135.874C124.492 135.626 124.494 135.369 124.552 135.121L131.289 106.612C131.374 106.24 131.583 105.908 131.881 105.67C132.179 105.432 132.549 105.301 132.93 105.299H174.453C174.708 105.298 174.96 105.355 175.19 105.465C175.419 105.576 175.621 105.737 175.779 105.937C175.937 106.137 176.048 106.37 176.103 106.619C176.157 106.868 176.155 107.126 176.095 107.374Z" fill="#F0F0F0"/>
	<path d="M155.917 122.357C155.805 123.241 155.379 124.054 154.717 124.65C154.056 125.247 153.203 125.586 152.313 125.607C151.899 125.617 151.488 125.537 151.108 125.372C150.728 125.207 150.389 124.961 150.113 124.652C149.838 124.343 149.633 123.977 149.513 123.581C149.392 123.185 149.36 122.767 149.417 122.357C149.524 121.467 149.948 120.646 150.611 120.043C151.274 119.44 152.132 119.096 153.028 119.074C153.445 119.065 153.859 119.147 154.24 119.314C154.622 119.481 154.962 119.73 155.238 120.043C155.513 120.356 155.716 120.725 155.834 121.125C155.951 121.525 155.98 121.945 155.917 122.357Z" fill="#E0E0E0"/>
	<path d="M134.578 105.305L127.402 137.183H126.187C125.933 137.182 125.683 137.124 125.454 137.012C125.226 136.901 125.026 136.74 124.869 136.54C124.712 136.341 124.602 136.108 124.547 135.86C124.492 135.613 124.494 135.355 124.552 135.108L131.289 106.599C131.374 106.227 131.583 105.895 131.881 105.657C132.179 105.418 132.549 105.288 132.93 105.286L134.578 105.305Z" fill="#E0E0E0"/>
	<path d="M146.608 137.183L145.189 143.953H149.352L150.764 137.183H146.608Z" fill="#E0E0E0"/>
	<path d="M139.116 142.81L139.969 141.609C140.121 141.403 140.319 141.237 140.547 141.123C140.775 141.008 141.027 140.95 141.283 140.952H152.694C152.989 140.951 153.279 141.032 153.532 141.185C153.784 141.338 153.99 141.557 154.126 141.819L154.703 142.915C154.765 143.031 154.796 143.16 154.794 143.291C154.791 143.422 154.755 143.55 154.69 143.663C154.624 143.776 154.53 143.87 154.418 143.937C154.305 144.004 154.178 144.041 154.047 144.045H139.746C139.601 144.048 139.458 144.011 139.334 143.937C139.209 143.863 139.108 143.755 139.042 143.626C138.976 143.497 138.948 143.352 138.961 143.208C138.974 143.063 139.028 142.925 139.116 142.81Z" fill="#E0E0E0"/>
	<path d="M259.076 205.726C259.076 205.726 253.535 206.953 254.362 203.099C255.189 199.245 255.124 197.807 252.871 196.054C250.619 194.301 248.354 193.427 250.074 190.643C251.795 187.86 248.531 185.699 246.837 184.202C245.143 182.705 247.054 181.576 247.494 178.746C247.934 175.916 244.867 176.336 244.657 172.771C244.447 169.206 248.045 165.036 244.927 160.131C244.927 160.131 249.109 162.298 250.488 166.113C251.867 169.928 250.751 172.863 253.219 174.314C255.688 175.765 257.238 178.253 256.404 180.84C255.57 183.427 256.752 184.78 258.781 186.651C260.81 188.523 260.265 189.278 260.015 191.563C259.766 193.848 260.271 193.316 262.589 196.448C264.907 199.58 264.973 204.701 259.076 205.726Z" fill="#F0F0F0"/>
	<path d="M259.863 205.555V205.496L248.773 171.845C248.762 171.81 248.758 171.774 248.761 171.738C248.763 171.702 248.773 171.667 248.79 171.634C248.806 171.602 248.829 171.573 248.857 171.55C248.884 171.526 248.916 171.508 248.951 171.497C249.019 171.478 249.093 171.486 249.156 171.518C249.22 171.551 249.268 171.607 249.292 171.674L260.382 205.332C260.385 205.358 260.385 205.384 260.382 205.41L259.863 205.555Z" fill="#E0E0E0"/>
	<path d="M269.076 205.66C269.076 205.66 274.585 206.881 273.771 203.034C272.956 199.186 273.009 197.781 275.248 196.021C277.487 194.261 279.746 193.395 278.032 190.644C276.318 187.892 279.568 185.726 281.249 184.235C282.93 182.745 281.033 181.609 280.593 178.805C280.153 176.001 283.18 176.408 283.416 172.896C283.652 169.383 280.054 165.207 283.147 160.322C283.147 160.322 278.991 162.482 277.618 166.271C276.246 170.059 277.356 172.988 274.9 174.432C272.444 175.877 270.901 178.372 271.735 180.919C272.569 183.467 271.387 184.859 269.371 186.697C267.356 188.536 267.894 189.324 268.144 191.589C268.393 193.854 267.888 193.329 265.583 196.448C263.278 199.567 263.213 204.636 269.076 205.66Z" fill="#F0F0F0"/>
	<path d="M267.783 205.338C267.779 205.31 267.779 205.281 267.783 205.253L278.814 171.766C278.837 171.699 278.886 171.643 278.949 171.61C279.013 171.577 279.086 171.57 279.155 171.589C279.189 171.599 279.221 171.616 279.248 171.639C279.276 171.663 279.298 171.691 279.314 171.723C279.33 171.755 279.339 171.79 279.341 171.825C279.343 171.861 279.338 171.897 279.326 171.93L268.301 205.417C268.293 205.438 268.282 205.458 268.269 205.476L267.783 205.338Z" fill="#E0E0E0"/>
	<path d="M262.956 204.957C262.956 204.957 256.613 204.432 258.78 200.565C260.947 196.697 261.354 195.148 259.522 192.521C257.69 189.895 255.583 188.207 258.327 185.798C261.072 183.388 258.327 179.987 257.014 177.827C255.701 175.666 258.117 175.082 259.535 172.2C260.954 169.317 257.566 168.759 258.485 164.859C259.404 160.959 264.676 157.702 262.969 151.412C262.969 151.412 266.732 155.121 266.909 159.659C267.086 164.196 264.939 166.986 267.112 169.356C269.286 171.727 270.107 174.924 268.353 177.4C266.6 179.875 267.421 181.733 268.971 184.412C270.52 187.091 269.693 187.695 268.662 190.085C267.631 192.475 268.353 192.055 269.798 196.172C271.242 200.289 269.614 205.817 262.956 204.957Z" fill="#F5F5F5"/>
	<path d="M263.856 205.036C263.853 205.012 263.853 204.988 263.856 204.964L263.153 165.233C263.153 165.152 263.185 165.073 263.241 165.015C263.297 164.956 263.374 164.921 263.455 164.918C263.496 164.918 263.536 164.926 263.573 164.941C263.611 164.957 263.645 164.98 263.674 165.008C263.702 165.037 263.725 165.071 263.74 165.108C263.756 165.146 263.764 165.186 263.764 165.226L264.467 204.951C264.47 204.981 264.47 205.012 264.467 205.043L263.856 205.036Z" fill="#E0E0E0"/>
	<path d="M280.225 201.891H249.207C249.002 201.891 248.799 201.94 248.616 202.036C248.433 202.131 248.277 202.269 248.159 202.438C248.042 202.607 247.967 202.802 247.942 203.007C247.916 203.211 247.94 203.418 248.012 203.611L248.472 204.833L248.761 205.601L249.595 207.814L249.884 208.588L250.737 210.854L251.026 211.628L254.441 220.689H274.992L278.4 211.628L278.695 210.854L279.549 208.588L279.838 207.814L280.672 205.601L280.961 204.833L281.42 203.611C281.492 203.418 281.517 203.211 281.491 203.007C281.466 202.802 281.391 202.607 281.273 202.438C281.156 202.269 280.999 202.131 280.817 202.036C280.634 201.94 280.431 201.891 280.225 201.891Z" fill="#E6E6E6"/>
	<path d="M161.532 240C231.998 240 289.122 238.216 289.122 236.014C289.122 233.813 231.998 232.029 161.532 232.029C91.0655 232.029 33.9414 233.813 33.9414 236.014C33.9414 238.216 91.0655 240 161.532 240Z" fill="#F0F0F0"/>
	<path d="M75.8322 211.648L70.435 235.909H55.9373L50.54 211.648H75.8322Z" fill="url(#paint0_linear_68_4224)"/>
	<path opacity="0.5" d="M75.8322 211.648L70.435 235.909H55.9373L50.54 211.648H75.8322Z" fill="white"/>
	<path d="M76.9225 211.648H49.2666V214.616H76.9225V211.648Z" fill="url(#paint1_linear_68_4224)"/>
	<path opacity="0.7" d="M76.9225 211.648H49.2666V214.616H76.9225V211.648Z" fill="white"/>
	<path d="M63.3445 211.648H64.0011C64.3294 191.727 58.8336 177.433 58.7483 177.275C58.6629 177.117 58.0917 177.341 58.1508 177.505C58.2099 177.669 63.7122 191.852 63.3445 211.648Z" fill="url(#paint2_linear_68_4224)"/>
	<path d="M62.0635 191.55C62.0635 191.55 59.8705 184.846 71.965 182.515C71.965 182.515 71.7418 194.261 62.0635 191.55Z" fill="url(#paint3_linear_68_4224)"/>
	<path d="M63.3439 202.633C63.3439 202.633 61.1442 195.929 73.2454 193.605C73.2454 193.605 73.0221 205.345 63.3439 202.633Z" fill="url(#paint4_linear_68_4224)"/>
	<path d="M62.9168 195.975C62.9168 195.975 62.2077 188.956 50.2051 191.727C50.2051 191.727 55.1755 202.377 62.9168 195.975Z" fill="url(#paint5_linear_68_4224)"/>
	<path d="M63.6395 206.08C63.6395 206.08 62.9304 199.061 50.9277 201.832C50.9277 201.825 55.8916 212.475 63.6395 206.08Z" fill="url(#paint6_linear_68_4224)"/>
	<path d="M60.7109 185.108C60.7109 185.108 53.6721 185.594 54.3813 173.29C54.3813 173.296 65.7141 176.389 60.7109 185.108Z" fill="url(#paint7_linear_68_4224)"/>
	<path d="M228.813 151.202C229.164 151.671 229.574 152.093 230.034 152.456L229.017 154.866L231.643 155.982L232.621 153.664C233.24 153.8 233.875 153.842 234.506 153.789L235.609 156.514L238.275 155.43L237.25 152.922C237.956 152.507 238.577 151.963 239.082 151.32L241.499 152.338L242.615 149.711L240.336 148.72C240.497 147.986 240.523 147.23 240.415 146.487L242.674 145.568L241.591 142.942L239.411 143.828C238.936 143.101 238.317 142.48 237.592 142.003L238.564 139.692L235.937 138.575L234.92 140.992C234.338 140.909 233.748 140.909 233.166 140.992L232.122 138.418L229.463 139.501L230.474 141.996C229.752 142.476 229.131 143.094 228.649 143.815L226.338 142.843L225.222 145.47L227.638 146.487C227.54 147.184 227.558 147.891 227.69 148.582L225.195 149.6L226.279 152.259L228.813 151.202ZM231.577 146.33C231.781 145.853 232.121 145.446 232.555 145.162C232.988 144.878 233.497 144.729 234.015 144.733C234.534 144.737 235.039 144.895 235.469 145.186C235.898 145.478 236.231 145.889 236.426 146.37C236.622 146.85 236.671 147.377 236.567 147.886C236.463 148.394 236.211 148.86 235.843 149.225C235.474 149.59 235.006 149.838 234.497 149.937C233.988 150.037 233.461 149.983 232.983 149.783C232.663 149.65 232.372 149.455 232.128 149.208C231.884 148.962 231.691 148.67 231.561 148.349C231.43 148.028 231.364 147.684 231.367 147.338C231.37 146.991 231.442 146.649 231.577 146.33Z" fill="url(#paint8_linear_68_4224)"/>
	<g opacity="0.5">
		<path d="M228.813 151.202C229.164 151.671 229.574 152.093 230.034 152.456L229.017 154.866L231.643 155.982L232.621 153.664C233.24 153.8 233.875 153.842 234.506 153.789L235.609 156.514L238.275 155.43L237.25 152.922C237.956 152.507 238.577 151.963 239.082 151.32L241.499 152.338L242.615 149.711L240.336 148.72C240.497 147.986 240.523 147.23 240.415 146.487L242.674 145.568L241.591 142.942L239.411 143.828C238.936 143.101 238.317 142.48 237.592 142.003L238.564 139.692L235.937 138.575L234.92 140.992C234.338 140.909 233.748 140.909 233.166 140.992L232.122 138.418L229.463 139.501L230.474 141.996C229.752 142.476 229.131 143.094 228.649 143.815L226.338 142.843L225.222 145.47L227.638 146.487C227.54 147.184 227.558 147.891 227.69 148.582L225.195 149.6L226.279 152.259L228.813 151.202ZM231.577 146.33C231.781 145.853 232.121 145.446 232.555 145.162C232.988 144.878 233.497 144.729 234.015 144.733C234.534 144.737 235.039 144.895 235.469 145.186C235.898 145.478 236.231 145.889 236.426 146.37C236.622 146.85 236.671 147.377 236.567 147.886C236.463 148.394 236.211 148.86 235.843 149.225C235.474 149.59 235.006 149.838 234.497 149.937C233.988 150.037 233.461 149.983 232.983 149.783C232.663 149.65 232.372 149.455 232.128 149.208C231.884 148.962 231.691 148.67 231.561 148.349C231.43 148.028 231.364 147.684 231.367 147.338C231.37 146.991 231.442 146.649 231.577 146.33Z" fill="white"/>
	</g>
	<path d="M77.8158 48.5687C78.1645 49.04 78.5753 49.4618 79.0371 49.8228L78.0194 52.2391L80.6458 53.3553L81.6241 51.0441C82.2424 51.18 82.8777 51.222 83.5085 51.1689L84.6116 53.8872L87.2774 52.8038L86.2531 50.2956C86.9599 49.8827 87.5816 49.339 88.085 48.6935L90.5013 49.7178L91.6175 47.0914L89.3194 46.0933C89.4764 45.3574 89.5031 44.5995 89.3982 43.8543L91.6569 42.9417L90.5735 40.2759L88.3936 41.1623C87.9139 40.4397 87.2957 39.8193 86.5749 39.3369L87.5466 37.0257L84.9202 35.9095L83.9025 38.3258C83.3208 38.2474 82.7311 38.2474 82.1494 38.3258L81.1054 35.7585L78.479 36.8353L79.4705 39.3041C78.7481 39.7869 78.1279 40.4071 77.6451 41.1295L75.3339 40.1511L74.2177 42.7775L76.634 43.7952C76.5363 44.4916 76.5541 45.1992 76.6865 45.8898L74.1914 46.901L75.2748 49.5668L77.8158 48.5687ZM80.5801 43.7033C80.7825 43.2254 81.1219 42.8182 81.5555 42.5331C81.9891 42.2479 82.4974 42.0976 83.0163 42.1011C83.5353 42.1046 84.0416 42.2618 84.4713 42.5528C84.901 42.8437 85.2348 43.2555 85.4307 43.7361C85.6266 44.2166 85.6757 44.7445 85.5719 45.2529C85.4681 45.7614 85.2159 46.2277 84.8473 46.593C84.4787 46.9583 84.0101 47.2062 83.5007 47.3054C82.9914 47.4046 82.464 47.3507 81.9852 47.1505C81.6661 47.017 81.3765 46.8218 81.1331 46.5762C80.8896 46.3305 80.6971 46.0391 80.5665 45.7188C80.4359 45.3985 80.3699 45.0556 80.3723 44.7097C80.3746 44.3638 80.4452 44.0218 80.5801 43.7033Z" fill="url(#paint9_linear_68_4224)"/>
	<g opacity="0.5">
		<path d="M77.8158 48.5687C78.1645 49.04 78.5753 49.4618 79.0371 49.8228L78.0194 52.2391L80.6458 53.3553L81.6241 51.0441C82.2424 51.18 82.8777 51.222 83.5085 51.1689L84.6116 53.8872L87.2774 52.8038L86.2531 50.2956C86.9599 49.8827 87.5816 49.339 88.085 48.6935L90.5013 49.7178L91.6175 47.0914L89.3194 46.0933C89.4764 45.3574 89.5031 44.5995 89.3982 43.8543L91.6569 42.9417L90.5735 40.2759L88.3936 41.1623C87.9139 40.4397 87.2957 39.8193 86.5749 39.3369L87.5466 37.0257L84.9202 35.9095L83.9025 38.3258C83.3208 38.2474 82.7311 38.2474 82.1494 38.3258L81.1054 35.7585L78.479 36.8353L79.4705 39.3041C78.7481 39.7869 78.1279 40.4071 77.6451 41.1295L75.3339 40.1511L74.2177 42.7775L76.634 43.7952C76.5363 44.4916 76.5541 45.1992 76.6865 45.8898L74.1914 46.901L75.2748 49.5668L77.8158 48.5687ZM80.5801 43.7033C80.7825 43.2254 81.1219 42.8182 81.5555 42.5331C81.9891 42.2479 82.4974 42.0976 83.0163 42.1011C83.5353 42.1046 84.0416 42.2618 84.4713 42.5528C84.901 42.8437 85.2348 43.2555 85.4307 43.7361C85.6266 44.2166 85.6757 44.7445 85.5719 45.2529C85.4681 45.7614 85.2159 46.2277 84.8473 46.593C84.4787 46.9583 84.0101 47.2062 83.5007 47.3054C82.9914 47.4046 82.464 47.3507 81.9852 47.1505C81.6661 47.017 81.3765 46.8218 81.1331 46.5762C80.8896 46.3305 80.6971 46.0391 80.5665 45.7188C80.4359 45.3985 80.3699 45.0556 80.3723 44.7097C80.3746 44.3638 80.4452 44.0218 80.5801 43.7033Z" fill="white"/>
	</g>
	<path d="M169.687 44.9376V67.4064H102.28V0.00653076H108.36C108.36 0.00653076 112.504 1.18841 113.876 4.47797C115.11 7.4064 113.265 10.9389 112.845 11.7006L112.773 11.8253C111.874 13.3814 111.401 15.1467 111.4 16.9437C111.4 18.7407 111.873 20.5061 112.771 22.0624C113.67 23.6188 114.962 24.9112 116.518 25.8098C118.074 26.7083 119.84 27.1814 121.637 27.1814C123.434 27.1814 125.199 26.7083 126.755 25.8098C128.312 24.9112 129.604 23.6188 130.502 22.0624C131.401 20.5061 131.873 18.7407 131.873 16.9437C131.873 15.1467 131.4 13.3814 130.501 11.8253C130.47 11.7908 130.445 11.7507 130.429 11.7071C130.002 10.9586 128.157 7.4261 129.385 4.48453C130.77 1.20154 134.907 0.0130982 134.907 0.0130982H169.706V18.4241C169.706 18.4241 168.518 22.5673 165.235 23.9461C162.307 25.1805 158.774 23.3289 158.012 22.9153L157.888 22.843C156.33 21.9322 154.557 21.456 152.753 21.4642C151.181 21.463 149.631 21.8237 148.221 22.5184C146.811 23.213 145.58 24.223 144.623 25.47C143.667 26.7169 143.01 28.1674 142.704 29.7091C142.399 31.2507 142.452 32.842 142.86 34.3597C143.269 35.8774 144.021 37.2807 145.059 38.4608C146.097 39.6409 147.392 40.5662 148.846 41.165C150.299 41.7637 151.87 42.0198 153.438 41.9135C155.006 41.8071 156.529 41.341 157.888 40.5515L158.006 40.4793C158.754 40.0591 162.287 38.2075 165.228 39.4419C168.498 40.7945 169.687 44.9376 169.687 44.9376Z" fill="url(#paint10_linear_68_4224)"/>
	<g opacity="0.7">
		<path d="M169.687 44.9376V67.4064H102.28V0.00653076H108.36C108.36 0.00653076 112.504 1.18841 113.876 4.47797C115.11 7.4064 113.265 10.9389 112.845 11.7006L112.773 11.8253C111.874 13.3814 111.401 15.1467 111.4 16.9437C111.4 18.7407 111.873 20.5061 112.771 22.0624C113.67 23.6188 114.962 24.9112 116.518 25.8098C118.074 26.7083 119.84 27.1814 121.637 27.1814C123.434 27.1814 125.199 26.7083 126.755 25.8098C128.312 24.9112 129.604 23.6188 130.502 22.0624C131.401 20.5061 131.873 18.7407 131.873 16.9437C131.873 15.1467 131.4 13.3814 130.501 11.8253C130.47 11.7908 130.445 11.7507 130.429 11.7071C130.002 10.9586 128.157 7.4261 129.385 4.48453C130.77 1.20154 134.907 0.0130982 134.907 0.0130982H169.706V18.4241C169.706 18.4241 168.518 22.5673 165.235 23.9461C162.307 25.1805 158.774 23.3289 158.012 22.9153L157.888 22.843C156.33 21.9322 154.557 21.456 152.753 21.4642C151.181 21.463 149.631 21.8237 148.221 22.5184C146.811 23.213 145.58 24.223 144.623 25.47C143.667 26.7169 143.01 28.1674 142.704 29.7091C142.399 31.2507 142.452 32.842 142.86 34.3597C143.269 35.8774 144.021 37.2807 145.059 38.4608C146.097 39.6409 147.392 40.5662 148.846 41.165C150.299 41.7637 151.87 42.0198 153.438 41.9135C155.006 41.8071 156.529 41.341 157.888 40.5515L158.006 40.4793C158.754 40.0591 162.287 38.2075 165.228 39.4419C168.498 40.7945 169.687 44.9376 169.687 44.9376Z" fill="white"/>
	</g>
	<path d="M237.054 0.0065918V67.3408H228.045C227.389 67.1176 223.883 65.8634 222.642 62.9088C221.401 59.9541 223.252 56.4544 223.672 55.6862L223.751 55.5614C224.659 54.0053 225.135 52.235 225.13 50.4334C225.127 48.8658 224.764 47.3199 224.068 45.9151C223.373 44.5104 222.363 43.2844 221.118 42.332C219.873 41.3795 218.426 40.7262 216.888 40.4224C215.35 40.1186 213.763 40.1725 212.249 40.58C210.736 40.9875 209.336 41.7376 208.159 42.7723C206.981 43.807 206.057 45.0987 205.459 46.5474C204.86 47.9962 204.602 49.5632 204.706 51.1273C204.81 52.6915 205.271 54.2108 206.056 55.568L206.135 55.6927C206.555 56.4347 208.393 59.9672 207.166 62.9153C205.938 65.8635 202.445 67.1241 201.762 67.3474H169.687V44.8983C169.687 44.8983 168.505 40.7551 165.222 39.3763C162.3 38.155 158.768 39.9935 157.999 40.4137L157.881 40.4859C156.524 41.2863 155 41.7624 153.429 41.8769C151.857 41.9915 150.28 41.7414 148.821 41.1463C147.362 40.5512 146.06 39.6271 145.017 38.446C143.974 37.265 143.218 35.8589 142.808 34.3376C142.398 32.8162 142.344 31.2206 142.652 29.6753C142.96 28.1299 143.621 26.6766 144.583 25.4286C145.545 24.1807 146.782 23.1718 148.198 22.4807C149.614 21.7896 151.171 21.435 152.747 21.4445C154.548 21.4394 156.319 21.9154 157.875 22.8234C157.911 22.8543 157.95 22.8808 157.993 22.9022C158.741 23.3224 162.274 25.1675 165.215 23.933C168.498 22.5608 169.68 18.4176 169.68 18.4176V0.0328564L237.054 0.0065918Z" fill="url(#paint11_linear_68_4224)"/>
	<path opacity="0.5" d="M237.054 0.0065918V67.3408H228.045C227.389 67.1176 223.883 65.8634 222.642 62.9088C221.401 59.9541 223.252 56.4544 223.672 55.6862L223.751 55.5614C224.659 54.0053 225.135 52.235 225.13 50.4334C225.127 48.8658 224.764 47.3199 224.068 45.9151C223.373 44.5104 222.363 43.2844 221.118 42.332C219.873 41.3795 218.426 40.7262 216.888 40.4224C215.35 40.1186 213.763 40.1725 212.249 40.58C210.736 40.9875 209.336 41.7376 208.159 42.7723C206.981 43.807 206.057 45.0987 205.459 46.5474C204.86 47.9962 204.602 49.5632 204.706 51.1273C204.81 52.6915 205.271 54.2108 206.056 55.568L206.135 55.6927C206.555 56.4347 208.393 59.9672 207.166 62.9153C205.938 65.8635 202.445 67.1241 201.762 67.3474H169.687V44.8983C169.687 44.8983 168.505 40.7551 165.222 39.3763C162.3 38.155 158.768 39.9935 157.999 40.4137L157.881 40.4859C156.524 41.2863 155 41.7624 153.429 41.8769C151.857 41.9915 150.28 41.7414 148.821 41.1463C147.362 40.5512 146.06 39.6271 145.017 38.446C143.974 37.265 143.218 35.8589 142.808 34.3376C142.398 32.8162 142.344 31.2206 142.652 29.6753C142.96 28.1299 143.621 26.6766 144.583 25.4286C145.545 24.1807 146.782 23.1718 148.198 22.4807C149.614 21.7896 151.171 21.435 152.747 21.4445C154.548 21.4394 156.319 21.9154 157.875 22.8234C157.911 22.8543 157.95 22.8808 157.993 22.9022C158.741 23.3224 162.274 25.1675 165.215 23.933C168.498 22.5608 169.68 18.4176 169.68 18.4176V0.0328564L237.054 0.0065918Z" fill="white"/>
	<path d="M190.303 74.6224L185.287 86.625C184.446 88.5948 183.586 90.5646 182.719 92.5344C182.286 93.4996 181.833 94.4517 181.406 95.3643C180.979 96.277 180.494 97.1831 180.054 97.9185C179.939 98.1286 179.809 98.3304 179.666 98.5226L179.01 98.8312L178.294 99.1529L176.836 99.8095L170.809 102.337C166.771 104.051 162.726 105.817 158.721 107.676L160.139 112.088C164.505 111.254 168.813 110.282 173.113 109.186C175.26 108.621 177.408 108.063 179.561 107.413L181.196 106.92L182.03 106.658L182.91 106.349L183.245 106.231L183.396 106.165L184 105.903L184.315 105.758L184.683 105.528L184.998 105.312C185.28 105.095 185.547 104.861 185.799 104.609C186.061 104.34 186.278 104.097 186.455 103.867C186.81 103.441 187.073 103.073 187.335 102.705C187.775 102.049 188.163 101.444 188.524 100.84C188.793 100.4 189.042 99.9737 189.285 99.5272C189.857 98.4963 190.395 97.4786 190.914 96.4674C191.964 94.4385 192.916 92.4096 193.849 90.3742C195.7 86.2967 197.427 82.2258 198.996 78.0236L190.303 74.6224Z" fill="#263238"/>
	<path d="M159.824 108.161C159.114 107.425 158.169 106.961 157.152 106.848C155.688 106.848 154.526 106.402 153.436 106.448C152.346 106.494 153.501 107.413 154.217 107.761C154.933 108.109 155.74 108.536 155.386 109.028C155.031 109.521 150.251 111.654 149.838 112.41C149.424 113.165 150.304 113.066 150.304 113.066C150.304 113.066 149.234 113.559 149.253 114.13C149.273 114.701 150.035 114.603 150.035 114.603C150.035 114.603 149.325 114.957 149.634 115.423C149.943 115.89 154.053 114.767 154.27 114.819C154.27 114.819 151.834 114.957 151.722 115.673C151.61 116.389 153.193 116.152 154.453 115.988C155.757 115.84 156.969 115.244 157.881 114.301C158.754 113.342 160.731 112.193 160.507 110.709C160.377 109.837 160.148 108.982 159.824 108.161Z" fill="#CE7A63"/>
	<g opacity="0.2">
		<path d="M150.237 114.622C151.459 114.071 152.693 113.561 153.941 113.092C154.072 113.417 154.228 113.731 154.407 114.031C154.499 114.182 154.689 113.985 154.604 113.841C154.057 112.898 153.723 111.847 153.625 110.762C153.625 110.578 153.369 110.643 153.389 110.821C153.413 111.097 153.455 111.371 153.514 111.641C153.502 111.637 153.49 111.634 153.478 111.634C153.465 111.634 153.453 111.637 153.441 111.641C152.428 111.934 151.453 112.348 150.539 112.876C150.401 112.955 150.493 113.211 150.644 113.125C151.538 112.611 152.49 112.208 153.481 111.924C153.497 111.917 153.512 111.907 153.524 111.895C153.537 111.883 153.547 111.868 153.553 111.852C153.631 112.19 153.729 112.523 153.849 112.85C152.601 113.287 151.364 113.797 150.139 114.379C149.988 114.439 150.086 114.688 150.237 114.622Z" fill="black"/>
	</g>
	<g opacity="0.2">
		<path d="M154.919 111.792C155.304 111.198 155.878 110.749 156.548 110.518C157.218 110.287 157.946 110.287 158.616 110.519C158.767 110.578 158.859 110.309 158.708 110.249C157.984 110.002 157.198 110.003 156.476 110.254C155.753 110.506 155.136 110.992 154.722 111.635C154.701 111.661 154.691 111.694 154.695 111.728C154.699 111.761 154.716 111.791 154.742 111.812C154.768 111.833 154.801 111.843 154.834 111.839C154.868 111.835 154.898 111.819 154.919 111.792Z" fill="black"/>
	</g>
	<path opacity="0.2" d="M201.597 76.0735C201.597 76.1618 201.571 76.2481 201.522 76.3216C201.473 76.395 201.403 76.4522 201.321 76.486C201.24 76.5198 201.15 76.5286 201.063 76.5114C200.977 76.4942 200.897 76.4517 200.835 76.3892C200.772 76.3268 200.73 76.2472 200.713 76.1606C200.695 76.074 200.704 75.9842 200.738 75.9026C200.772 75.821 200.829 75.7513 200.903 75.7023C200.976 75.6532 201.062 75.627 201.151 75.627C201.269 75.627 201.383 75.674 201.466 75.7578C201.55 75.8415 201.597 75.9551 201.597 76.0735Z" fill="black"/>
	<path opacity="0.2" d="M201.597 79.0347C201.596 79.1227 201.568 79.2084 201.519 79.281C201.469 79.3535 201.399 79.4097 201.317 79.4425C201.235 79.4753 201.146 79.4832 201.059 79.4652C200.973 79.4473 200.894 79.4042 200.833 79.3415C200.771 79.2789 200.729 79.1993 200.712 79.1129C200.696 79.0264 200.705 78.937 200.739 78.8558C200.773 78.7746 200.83 78.7053 200.903 78.6565C200.976 78.6077 201.063 78.5817 201.151 78.5817C201.21 78.5817 201.268 78.5934 201.323 78.6163C201.378 78.6391 201.427 78.6726 201.469 78.7147C201.51 78.7569 201.543 78.8069 201.565 78.8618C201.587 78.9168 201.598 78.9755 201.597 79.0347Z" fill="black"/>
	<path opacity="0.2" d="M201.597 81.9828C201.597 82.0711 201.571 82.1574 201.522 82.2309C201.473 82.3043 201.403 82.3615 201.321 82.3953C201.24 82.4291 201.15 82.4379 201.063 82.4207C200.977 82.4035 200.897 82.361 200.835 82.2985C200.772 82.2361 200.73 82.1565 200.713 82.0699C200.695 81.9833 200.704 81.8935 200.738 81.8119C200.772 81.7304 200.829 81.6606 200.903 81.6116C200.976 81.5625 201.062 81.5363 201.151 81.5363C201.269 81.5363 201.383 81.5834 201.466 81.6671C201.55 81.7508 201.597 81.8644 201.597 81.9828Z" fill="black"/>
	<path d="M190.632 225.03L188.957 231.93H185.326L185.162 225.03H190.632Z" fill="#FF8B7B"/>
	<path d="M174.781 236.802C174.978 234.557 175.963 233.887 177.184 233.808C178.406 233.729 182.976 232.213 182.976 232.213C182.976 232.213 183.921 230.788 184.755 230.499C185.589 230.21 186.396 231.057 186.396 231.057L188.675 230.781C188.675 230.781 189.331 229.757 189.83 230.65C190.553 232.049 190.487 235.903 190.402 236.802H174.781Z" fill="#263238"/>
	<path d="M175.077 236.218H177.907L190.297 236.152C190.455 236.152 190.422 235.916 190.264 235.916H189.424C189.427 235.905 189.427 235.894 189.424 235.883C189.25 235.616 189.133 235.315 189.082 235.001C189.03 234.686 189.045 234.364 189.124 234.055C189.204 233.746 189.347 233.458 189.545 233.207C189.742 232.957 189.989 232.75 190.271 232.6C190.402 232.528 190.271 232.318 190.12 232.39C189.823 232.553 189.562 232.775 189.353 233.042C189.143 233.309 188.991 233.616 188.904 233.944C188.816 234.271 188.797 234.613 188.845 234.949C188.894 235.285 189.011 235.607 189.187 235.896H187.441L175.057 235.962C174.887 235.982 174.92 236.225 175.077 236.218Z" fill="url(#paint12_linear_68_4224)"/>
	<path d="M205.654 134.695C204.583 143.951 202.974 153.137 200.835 162.206C200.073 165.568 199.198 169.153 198.209 172.961C200.881 195.036 190.421 226.927 190.421 226.927L184.82 226.802C184.82 226.802 184.118 191.162 184.775 172.502C185.858 141.93 189.581 112.81 189.581 112.81L204.84 112.751C204.84 112.751 207.506 117.347 205.654 134.695Z" fill="url(#paint13_linear_68_4224)"/>
	<path opacity="0.2" d="M205.655 134.695C204.584 143.951 202.975 153.137 200.835 162.206C197.624 149.98 203.462 123.887 203.462 123.887L205.655 134.695Z" fill="black"/>
	<path d="M184.197 228.122L184.02 225.719H191.492L191.071 228.122H184.197Z" fill="#263238"/>
	<path d="M213.862 225.03L212.188 231.93H208.557L208.393 225.03H213.862Z" fill="#FF8B7B"/>
	<path d="M198.012 236.802C198.209 234.557 199.194 233.887 200.415 233.808C201.636 233.729 206.193 232.213 206.193 232.213C206.193 232.213 207.138 230.788 207.972 230.499C208.806 230.21 209.614 231.057 209.614 231.057L211.892 230.781C211.892 230.781 212.549 229.757 213.048 230.65C213.777 232.049 213.704 235.903 213.619 236.802H198.012Z" fill="#263238"/>
	<path d="M198.314 236.218H201.144L213.534 236.152C213.691 236.152 213.658 235.916 213.501 235.916H212.667V235.883C212.492 235.617 212.374 235.316 212.322 235.002C212.269 234.687 212.283 234.365 212.362 234.056C212.441 233.747 212.584 233.458 212.781 233.207C212.978 232.956 213.226 232.75 213.507 232.6C213.639 232.528 213.507 232.318 213.363 232.39C213.065 232.553 212.804 232.774 212.594 233.041C212.384 233.308 212.231 233.614 212.143 233.942C212.055 234.27 212.035 234.612 212.083 234.948C212.131 235.284 212.247 235.606 212.424 235.896H210.658L198.274 235.962C198.117 235.982 198.15 236.225 198.314 236.218Z" fill="url(#paint14_linear_68_4224)"/>
	<path d="M200.402 113.992C200.402 113.992 203.252 156.185 204.184 172.961C205.255 192.121 207.651 224.78 207.973 226.92H213.764C213.108 227.577 221.197 198.253 217.934 174.393C220.993 151.569 224.716 134.852 219.903 113.329L200.402 113.992Z" fill="url(#paint15_linear_68_4224)"/>
	<path d="M207.29 228.122L207.112 225.719H214.591L214.164 228.122H207.29Z" fill="#263238"/>
	<path d="M221.656 115.01C209.489 119.028 189.036 117.708 189.036 114.918C189.036 107.071 191.814 98.2402 191.072 93.1253C185.313 89.1004 189.811 85.4628 189.312 79.5009C189.14 77.3002 189.797 75.1146 191.154 73.3736C192.511 71.6326 194.47 70.462 196.646 70.0918C197.684 69.9145 198.76 69.7373 199.824 69.5994L200.481 69.5206C203.314 69.1955 206.166 69.0617 209.017 69.1201C210.061 69.1201 211.137 69.1201 212.26 69.1529C213.383 69.1857 214.479 69.2185 215.543 69.2973C216.457 69.3645 217.347 69.6224 218.155 70.0542C218.964 70.486 219.673 71.0823 220.237 71.8047C220.801 72.5271 221.208 73.3596 221.43 74.2486C221.653 75.1375 221.688 76.0634 221.531 76.9664C220.596 82.2034 220.003 87.4959 219.759 92.8101C219.706 93.9067 219.673 94.9638 219.66 96.0012C219.586 99.6391 219.751 103.278 220.152 106.894C220.152 106.966 220.152 107.032 220.152 107.098C220.323 108.536 220.54 109.862 220.809 111.077C220.881 111.458 220.967 111.819 221.052 112.18C221.164 112.935 221.459 114.255 221.656 115.01Z" fill="#263238"/>
	<path opacity="0.2" d="M213.947 78.6998L220.021 87.8462C220.113 86.7497 220.224 85.627 220.356 84.491L213.947 78.6998Z" fill="black"/>
	<path d="M199.818 79.5599C199.818 79.6627 199.777 79.7612 199.704 79.8339C199.632 79.9065 199.533 79.9473 199.43 79.9473C199.328 79.9473 199.229 79.9065 199.156 79.8339C199.084 79.7612 199.043 79.6627 199.043 79.5599C199.043 79.4572 199.084 79.3587 199.156 79.286C199.229 79.2134 199.328 79.1725 199.43 79.1725C199.533 79.1725 199.632 79.2134 199.704 79.286C199.777 79.3587 199.818 79.4572 199.818 79.5599Z" fill="url(#paint16_linear_68_4224)"/>
	<path d="M199.581 83.0662C199.582 83.1176 199.573 83.1687 199.554 83.2165C199.535 83.2643 199.506 83.3077 199.47 83.3444C199.434 83.3811 199.391 83.4102 199.344 83.4301C199.296 83.45 199.245 83.4602 199.194 83.4602C199.089 83.4602 198.989 83.4187 198.915 83.3448C198.841 83.2709 198.8 83.1707 198.8 83.0662C198.8 83.0148 198.81 82.9639 198.83 82.9164C198.85 82.869 198.879 82.826 198.916 82.7899C198.952 82.7539 198.996 82.7255 199.044 82.7064C199.091 82.6873 199.142 82.678 199.194 82.6788C199.245 82.6779 199.296 82.6874 199.343 82.7065C199.39 82.7257 199.434 82.7542 199.47 82.7903C199.506 82.8265 199.534 82.8695 199.553 82.9169C199.573 82.9643 199.582 83.0151 199.581 83.0662Z" fill="url(#paint17_linear_68_4224)"/>
	<path d="M199.194 87.0256C199.408 87.0256 199.581 86.8521 199.581 86.6382C199.581 86.4242 199.408 86.2508 199.194 86.2508C198.98 86.2508 198.807 86.4242 198.807 86.6382C198.807 86.8521 198.98 87.0256 199.194 87.0256Z" fill="url(#paint18_linear_68_4224)"/>
	<path d="M208.97 69.1201C206.094 74.1824 199.312 77.2159 199.312 77.2159C198.399 74.9441 198.655 71.3065 199.824 69.5994L200.48 69.5206C203.298 69.1975 206.134 69.0637 208.97 69.1201Z" fill="#FF8B7B"/>
	<path d="M204.88 49.2514C204.88 49.2514 210.074 54.2153 207.684 59.8423C206.64 62.4168 204.619 64.4731 202.063 65.5613L204.88 49.2514Z" fill="#263238"/>
	<path d="M196.56 48.0104C196.56 48.0104 191.459 47.1569 190.369 52.7774C189.279 58.3978 189.548 60.4464 191.025 61.845C192.995 63.6835 196.088 61.6808 196.088 61.6808L196.56 48.0104Z" fill="#263238"/>
	<path d="M199.746 71.1096C199.718 71.1892 199.682 71.2661 199.641 71.3394C198.656 72.8824 199.726 74.3007 201.407 74.1759C201.57 74.1642 201.732 74.1422 201.893 74.1103C202.501 73.9864 203.057 73.6767 203.482 73.2239C204.778 71.8319 206.181 70.5432 207.677 69.3696C205.136 68.0105 204.211 63.1845 203.981 60.1772L200.041 65.1871L199.306 66.2771C199.666 66.8866 199.952 67.5368 200.159 68.214C200.332 68.6938 200.384 69.2085 200.312 69.7132C200.24 70.2179 200.046 70.6973 199.746 71.1096Z" fill="#FF8B7B"/>
	<path d="M207.289 69.1135C208.673 68.7712 210.12 68.7712 211.505 69.1135L207.683 75.6795C205.667 74.2153 203.363 76.1194 199.312 77.2094C202.664 75.2949 205.424 72.4938 207.289 69.1135Z" fill="url(#paint19_linear_68_4224)"/>
	<path d="M207.289 69.1135C208.673 68.7712 210.12 68.7712 211.505 69.1135L207.683 75.6795C205.667 74.2153 203.363 76.1194 199.312 77.2094C202.664 75.2949 205.424 72.4938 207.289 69.1135Z" fill="url(#paint20_linear_68_4224)"/>
	<path d="M200.336 69.4156C200.336 69.4156 197.998 68.9888 196.646 70.0722C196.156 71.7655 195.792 73.4927 195.556 75.2396C195.556 75.2396 197.801 74.1168 199.311 77.2094C199.311 77.216 198.543 72.3112 200.336 69.4156Z" fill="url(#paint21_linear_68_4224)"/>
	<path d="M200.336 69.4156C200.336 69.4156 197.998 68.9888 196.646 70.0722C196.156 71.7655 195.792 73.4927 195.556 75.2396C195.556 75.2396 197.801 74.1168 199.311 77.2094C199.311 77.216 198.543 72.3112 200.336 69.4156Z" fill="url(#paint22_linear_68_4224)"/>
	<g opacity="0.2">
		<path d="M200.165 68.1943C199.958 67.5171 199.672 66.8669 199.312 66.2573L200.047 65.1674L202.529 65.2199C202.093 66.4465 201.262 67.493 200.165 68.1943Z" fill="black"/>
	</g>
	<path d="M204.703 54.7931C205.097 59.7439 205.36 61.8318 203.291 64.6946C200.166 69.0019 194.099 68.3781 192.274 63.6375C190.619 59.3696 190.251 51.9829 194.69 49.3696C199.128 46.7563 204.309 49.8358 204.703 54.7931Z" fill="#FF8B7B"/>
	<path d="M203.612 58.0301C206.101 57.3735 205.123 54.8062 205.123 54.8062L201.465 55.3709C201.465 55.3709 201.13 58.6867 203.612 58.0301Z" fill="#263238"/>
	<path d="M193.062 49.8095C193.062 49.8095 193.633 52.541 197.001 52.6854C200.369 52.8299 200.067 57.8003 203.83 57.0124C207.592 56.2245 206.456 50.4464 204.867 49.2251C203.278 48.0039 196.817 45.3118 193.062 49.8095Z" fill="#263238"/>
	<path d="M200.94 47.3079C200.94 47.3079 203.383 40.0853 209.056 42.9415C214.729 45.7977 209.752 53.2304 206.154 52.2652C202.556 51.3 200.94 47.3079 200.94 47.3079Z" fill="#263238"/>
	<path d="M194.335 62.4227C195.39 61.8182 196.377 61.1004 197.277 60.2822C197.277 60.2822 197.631 62.1601 196.37 62.8561C196.039 63.0539 195.645 63.1192 195.268 63.0388C194.89 62.9585 194.557 62.7384 194.335 62.4227Z" fill="white"/>
	<path d="M196.554 57.0321C196.607 57.4326 196.443 57.7872 196.18 57.82C195.917 57.8528 195.661 57.5639 195.609 57.1634C195.556 56.7629 195.714 56.4083 195.976 56.3755C196.239 56.3426 196.495 56.6315 196.554 57.0321Z" fill="#263238"/>
	<path d="M192.49 57.6887C192.542 58.0892 192.378 58.4372 192.115 58.4766C191.853 58.516 191.597 58.2206 191.544 57.82C191.492 57.4195 191.649 57.0649 191.912 57.0256C192.175 56.9862 192.431 57.2882 192.49 57.6822" fill="#263238"/>
	<path d="M192.03 57.0321L191.032 56.8942C191.032 56.8942 191.63 57.5508 192.03 57.0321Z" fill="#263238"/>
	<path d="M193.981 57.5771C193.981 57.5771 193.442 58.7328 192.825 59.7571C192.777 59.8341 192.746 59.9212 192.736 60.0117C192.726 60.1022 192.737 60.1939 192.767 60.2797C192.797 60.3656 192.847 60.4435 192.911 60.5077C192.976 60.5718 193.054 60.6205 193.14 60.65C193.567 60.783 194.008 60.8668 194.454 60.8995L193.981 57.5771Z" fill="#FF5652"/>
	<path d="M206.928 57.9447C206.805 58.3798 206.59 58.7837 206.299 59.13C206.009 59.4763 205.648 59.7571 205.241 59.9539C204.19 60.407 203.481 59.2973 203.612 58.0301C203.737 56.9007 204.426 55.2921 205.582 55.4037C206.738 55.5153 207.309 56.8285 206.954 57.971" fill="#FF8B7B"/>
	<path d="M197.658 55.3972C197.592 55.3969 197.528 55.371 197.481 55.3249C197.286 55.0972 197.039 54.9189 196.762 54.8048C196.484 54.6907 196.184 54.6439 195.885 54.6683C195.854 54.6739 195.823 54.6735 195.793 54.6669C195.762 54.6604 195.733 54.6479 195.708 54.6302C195.682 54.6126 195.66 54.59 195.643 54.5639C195.627 54.5377 195.615 54.5085 195.609 54.4779C195.604 54.4473 195.604 54.4159 195.611 54.3855C195.617 54.355 195.63 54.3262 195.647 54.3006C195.665 54.275 195.688 54.2531 195.714 54.2362C195.74 54.2193 195.769 54.2078 195.8 54.2022C196.174 54.1581 196.554 54.2043 196.907 54.3368C197.26 54.4693 197.576 54.6843 197.829 54.9638C197.852 54.9853 197.87 55.0112 197.882 55.04C197.895 55.0688 197.901 55.0999 197.901 55.1312C197.901 55.1626 197.895 55.1937 197.882 55.2225C197.87 55.2512 197.852 55.2772 197.829 55.2987C197.808 55.3197 197.784 55.3364 197.757 55.3477C197.73 55.359 197.7 55.3646 197.671 55.3643" fill="#263238"/>
	<path d="M190.625 56.1195C190.577 56.1238 190.528 56.1133 190.486 56.0894C190.444 56.0654 190.411 56.0292 190.39 55.9855C190.369 55.9419 190.362 55.8929 190.37 55.8453C190.378 55.7976 190.401 55.7535 190.434 55.7189C190.664 55.4185 190.964 55.178 191.307 55.0179C191.65 54.8579 192.026 54.783 192.404 54.7997C192.467 54.8058 192.525 54.8365 192.565 54.8852C192.605 54.9338 192.624 54.9964 192.618 55.0591C192.612 55.1217 192.581 55.1794 192.532 55.2195C192.483 55.2595 192.421 55.2786 192.358 55.2725C192.061 55.2655 191.766 55.3291 191.498 55.4581C191.229 55.587 190.996 55.7777 190.815 56.0144C190.775 56.0653 190.716 56.0983 190.651 56.1063" fill="#263238"/>
	<path d="M196.095 56.3755L195.097 56.2311C195.097 56.2311 195.694 56.8877 196.095 56.3755Z" fill="#263238"/>
	<path d="M226.475 100.125C224.433 103.408 222.161 106.691 219.909 109.928L223.35 113.027C226.427 110.285 229.318 107.341 232.004 104.215C233.434 102.588 234.751 100.864 235.943 99.0545C236.252 98.5686 236.554 98.0696 236.85 97.5049C237.178 96.8869 237.457 96.2436 237.683 95.5811C237.831 95.1534 237.943 94.7141 238.018 94.2679C238.133 93.5943 238.133 92.9061 238.018 92.2324C237.915 91.6346 237.736 91.0522 237.486 90.499C237.328 90.1278 237.148 89.766 236.948 89.4156C236.337 88.3592 235.646 87.3516 234.88 86.4018C234.19 85.5154 233.501 84.6947 232.805 83.8936C231.393 82.3178 229.982 80.8011 228.511 79.35C225.595 76.4412 222.601 73.7098 219.423 71.09L213.356 78.2009L222.096 86.0801C223.527 87.3933 224.965 88.7065 226.305 90.0197C226.961 90.6763 227.618 91.3329 228.274 91.9895C228.814 92.5592 229.322 93.1576 229.798 93.782C229.758 93.8936 229.719 94.0184 229.673 94.1366C229.535 94.4846 229.371 94.8654 229.2 95.2528C228.377 96.923 227.468 98.5492 226.475 100.125Z" fill="#263238"/>
	<path d="M220.165 108.477C220.165 108.477 216.285 109.921 215.687 110.676C215.09 111.431 218.898 115.725 220.375 116.323C221.853 116.92 221.097 115.141 221.097 115.141C221.097 115.141 223.008 115.588 223.895 114.136C224.781 112.685 223.737 108.72 220.165 108.477Z" fill="#FF8B7B"/>
	<path d="M126.941 221.792V231.944L131.039 232.265L133.048 222.764L126.941 221.792Z" fill="#FFC3BD"/>
	<path d="M129.851 231.313C129.851 231.313 131.164 228.838 131.899 229.1C132.635 229.363 132.969 232.383 132.969 232.383C132.969 232.383 137.106 233.762 138.255 233.835C139.404 233.907 140.35 234.563 140.494 236.815H126.384C126.384 236.815 126.482 231.727 126.509 230.854C126.535 229.98 127.776 231.07 127.776 231.07L129.851 231.313Z" fill="#263238"/>
	<path d="M126.541 232.777C126.793 232.916 127.014 233.105 127.19 233.333C127.366 233.56 127.494 233.821 127.566 234.099C127.638 234.378 127.652 234.668 127.608 234.952C127.564 235.236 127.462 235.508 127.309 235.752C127.301 235.763 127.295 235.777 127.291 235.791C127.288 235.805 127.288 235.819 127.291 235.834C127.293 235.848 127.299 235.861 127.307 235.873C127.315 235.885 127.326 235.896 127.338 235.903C127.35 235.911 127.364 235.916 127.378 235.918C127.392 235.92 127.407 235.92 127.421 235.916C127.435 235.912 127.448 235.905 127.459 235.896C127.471 235.887 127.48 235.876 127.487 235.863C127.658 235.597 127.774 235.299 127.826 234.987C127.879 234.675 127.866 234.355 127.791 234.048C127.715 233.74 127.578 233.452 127.386 233.199C127.195 232.947 126.955 232.736 126.679 232.58C126.561 232.508 126.423 232.705 126.541 232.777Z" fill="white"/>
	<path d="M126.521 235.995L137.592 236.113H140.159C140.303 236.113 140.336 235.89 140.159 235.89L129.089 235.771H126.515C126.37 235.771 126.344 235.995 126.515 235.995H126.521Z" fill="white"/>
	<path d="M132.358 233.257C132.466 233.093 132.606 232.953 132.77 232.846C132.934 232.738 133.118 232.665 133.31 232.63C133.503 232.596 133.701 232.601 133.892 232.646C134.083 232.69 134.262 232.773 134.42 232.889C134.525 232.981 134.663 232.784 134.558 232.699C133.829 232.101 132.838 232.357 132.181 233.145C132.083 233.263 132.26 233.375 132.358 233.257Z" fill="white"/>
	<path d="M133.527 233.657C133.635 233.494 133.775 233.354 133.939 233.246C134.103 233.139 134.287 233.065 134.479 233.031C134.672 232.996 134.87 233.002 135.061 233.046C135.252 233.091 135.431 233.173 135.589 233.29C135.694 233.375 135.832 233.184 135.727 233.099C134.998 232.502 134.007 232.758 133.35 233.546C133.252 233.657 133.429 233.775 133.527 233.657Z" fill="white"/>
	<path d="M134.735 233.992C134.843 233.828 134.982 233.687 135.146 233.579C135.31 233.471 135.494 233.397 135.687 233.363C135.88 233.328 136.078 233.334 136.269 233.379C136.46 233.424 136.64 233.507 136.797 233.624C136.902 233.71 137.04 233.519 136.935 233.434C136.206 232.836 135.215 233.092 134.558 233.874C134.46 233.992 134.637 234.104 134.735 233.992Z" fill="white"/>
	<path d="M124.479 121.175C124.598 122.988 124.348 128.549 124.591 131.536C125.057 137.229 125.674 144.609 126.167 152.003C126.738 160.538 127.145 169.133 126.942 175.082C126.416 190.361 126.535 224.984 126.535 224.984H133.16C133.16 224.984 140.94 190.578 142.398 175.082C143.613 162.246 142.969 129.173 142.766 121.175H124.479Z" fill="#263238"/>
	<path opacity="0.2" d="M124.479 121.175C124.598 122.988 124.348 128.549 124.591 131.536C125.057 137.229 125.674 144.609 126.167 152.003C126.738 160.538 127.145 169.133 126.942 175.082C126.416 190.361 126.535 224.984 126.535 224.984H133.16C133.16 224.984 140.94 190.578 142.398 175.082C143.613 162.246 142.969 129.173 142.766 121.175H124.479Z" fill="white"/>
	<path opacity="0.2" d="M124.591 131.536C125.057 137.229 125.674 144.609 126.167 152.003C129.45 142.35 126.396 127.761 126.396 127.761L124.591 131.536Z" fill="black"/>
	<path d="M125.957 225.213H133.732L134.303 222.731L125.754 222.626L125.957 225.213Z" fill="url(#paint23_linear_68_4224)"/>
	<path d="M93.0681 219.895L91.5186 229.928L95.5172 230.88L98.9512 221.792L93.0681 219.895Z" fill="#FFC3BD"/>
	<path d="M94.4859 229.75C94.4859 229.75 96.1406 227.505 96.8497 227.879C97.5588 228.253 97.4078 231.274 97.4078 231.274C97.4078 231.274 101.282 233.244 102.411 233.519C103.54 233.795 104.381 234.557 104.171 236.802L90.2246 234.649C90.2246 234.649 91.0979 229.632 91.2555 228.772C91.413 227.912 92.4702 229.186 92.4702 229.186L94.4859 229.75Z" fill="#263238"/>
	<path d="M90.9928 230.696C91.2203 230.871 91.4095 231.092 91.5488 231.343C91.6881 231.594 91.7746 231.871 91.8029 232.157C91.8312 232.443 91.8007 232.732 91.7133 233.006C91.6259 233.279 91.4835 233.532 91.2948 233.749C91.2029 233.867 91.3604 234.005 91.4524 233.887C91.6626 233.651 91.8224 233.374 91.9218 233.074C92.0213 232.774 92.0583 232.457 92.0306 232.142C92.0029 231.827 91.9112 231.521 91.7609 231.243C91.6107 230.965 91.4051 230.721 91.1569 230.525C91.0518 230.433 90.8877 230.604 90.9928 230.696Z" fill="white"/>
	<path d="M90.4807 233.874L101.4 235.673L103.941 236.093C104.085 236.093 104.145 235.903 104.007 235.877L93.0809 234.071L90.5398 233.651C90.4019 233.651 90.3363 233.848 90.4807 233.874Z" fill="white"/>
	<path d="M96.672 232.055C96.8032 231.91 96.9626 231.794 97.1404 231.712C97.3182 231.631 97.5107 231.587 97.7061 231.583C97.9015 231.578 98.0957 231.614 98.2769 231.687C98.4582 231.761 98.6225 231.87 98.76 232.009C98.8519 232.108 99.0161 231.937 98.9241 231.838C98.3004 231.142 97.2826 231.241 96.5078 231.917C96.3962 232.016 96.5538 232.153 96.672 232.055Z" fill="white"/>
	<path d="M97.7688 232.594C97.9 232.448 98.0596 232.331 98.2377 232.25C98.4158 232.169 98.6086 232.125 98.8043 232.122C99 232.118 99.1944 232.154 99.3754 232.229C99.5564 232.303 99.7203 232.414 99.8568 232.554C99.9488 232.653 100.113 232.482 100.028 232.383C99.3709 231.681 98.3795 231.786 97.6113 232.456C97.4931 232.561 97.6572 232.699 97.7688 232.594Z" fill="white"/>
	<path d="M98.9112 233.145C99.042 232.999 99.2011 232.882 99.379 232.8C99.5569 232.719 99.7496 232.674 99.9453 232.67C100.141 232.666 100.335 232.701 100.517 232.775C100.698 232.849 100.862 232.959 100.999 233.099C101.091 233.198 101.255 233.027 101.163 232.928C100.507 232.226 99.5153 232.331 98.7471 233.007C98.6355 233.106 98.7931 233.244 98.9112 233.145Z" fill="white"/>
	<path d="M116.403 176.421C112.306 191.425 98.5435 223.874 98.5435 223.874L91.9775 222.738C91.9775 222.738 98.7799 188.976 101.912 174.018C104.742 160.519 107.821 129.521 108.852 120.289L130.769 122.259C129.601 130.138 119.771 163.972 116.37 176.415L116.403 176.421Z" fill="#263238"/>
	<path opacity="0.2" d="M116.403 176.421C112.306 191.425 98.5435 223.874 98.5435 223.874L91.9775 222.738C91.9775 222.738 98.7799 188.976 101.912 174.018C104.742 160.519 107.821 129.521 108.852 120.289L130.769 122.259C129.601 130.138 119.771 163.972 116.37 176.415L116.403 176.421Z" fill="white"/>
	<path d="M91.4062 222.869L99.0622 224.202L100.054 221.858L91.5179 220.302L91.4062 222.869Z" fill="url(#paint24_linear_68_4224)"/>
	<path d="M146.082 75.9618C145.714 79.1332 145.11 85.8108 144.519 93.3683C144.302 96.2179 144.079 99.2054 143.862 102.16C143.626 105.581 143.429 108.864 143.278 111.852C143.219 113.06 143.166 114.222 143.12 115.318C142.91 120.762 142.91 124.734 143.212 125.929C126.252 132.797 107.828 123.92 107.828 123.92C108.918 115.043 110.015 104.951 110.015 104.951C110.533 101.169 111.032 97.3473 111.479 93.7425C111.512 93.4536 111.551 93.1582 111.584 92.8758C111.801 91.103 111.998 89.3958 112.181 87.7806L112.247 87.1831C112.602 83.9986 112.904 81.1818 113.035 78.9297C113.337 74.6815 115.911 70.7353 119.752 70.0262C120.914 69.8095 122.168 69.6191 123.468 69.4746C123.777 69.4287 124.125 69.4024 124.407 69.3696C128.076 68.9644 131.768 68.8131 135.458 68.9165H135.99H136.272C136.423 68.9165 136.581 68.9165 136.732 68.9165C138.198 68.9754 139.659 69.1113 141.111 69.3236C141.874 69.4314 142.608 69.6889 143.271 70.0812C143.935 70.4736 144.514 70.9931 144.976 71.6099C145.438 72.2267 145.773 72.9287 145.963 73.6756C146.153 74.4224 146.193 75.1994 146.082 75.9618Z" fill="url(#paint25_linear_68_4224)"/>
	<path opacity="0.3" d="M134.624 78.1746C134.628 78.2825 134.599 78.3892 134.542 78.4811C134.486 78.5729 134.403 78.6458 134.304 78.6904C134.206 78.735 134.096 78.7494 133.99 78.7317C133.883 78.714 133.784 78.665 133.706 78.5909C133.627 78.5169 133.572 78.4211 133.548 78.3158C133.524 78.2105 133.532 78.1004 133.57 77.9995C133.609 77.8985 133.676 77.8114 133.765 77.749C133.853 77.6867 133.958 77.6519 134.066 77.6493C134.209 77.6457 134.348 77.6989 134.453 77.7972C134.557 77.8956 134.619 78.0312 134.624 78.1746Z" fill="white"/>
	<path opacity="0.3" d="M134.709 81.5364C134.713 81.6444 134.684 81.7511 134.627 81.8429C134.571 81.9348 134.488 82.0077 134.389 82.0523C134.291 82.0969 134.181 82.1113 134.075 82.0936C133.968 82.0759 133.869 82.0269 133.791 81.9528C133.712 81.8788 133.657 81.783 133.633 81.6777C133.609 81.5724 133.616 81.4623 133.655 81.3613C133.694 81.2604 133.761 81.1732 133.85 81.1109C133.938 81.0485 134.043 81.0138 134.151 81.0112C134.294 81.0076 134.433 81.0608 134.538 81.1591C134.642 81.2575 134.704 81.393 134.709 81.5364Z" fill="white"/>
	<path opacity="0.3" d="M134.821 84.8982C134.825 85.0062 134.797 85.1128 134.74 85.2047C134.683 85.2965 134.6 85.3694 134.502 85.414C134.403 85.4587 134.294 85.473 134.187 85.4553C134.081 85.4376 133.982 85.3886 133.903 85.3146C133.824 85.2405 133.769 85.1448 133.745 85.0394C133.721 84.9341 133.729 84.824 133.767 84.7231C133.806 84.6222 133.874 84.535 133.962 84.4727C134.05 84.4103 134.155 84.3756 134.263 84.3729C134.406 84.3694 134.545 84.4225 134.65 84.5209C134.754 84.6192 134.816 84.7548 134.821 84.8982Z" fill="white"/>
	<path opacity="0.2" d="M124.479 85.1411C124.479 85.1411 125.136 99.7701 126.265 100.899C127.395 102.029 141.144 107.557 141.144 107.557C133.264 106.645 126.232 105.404 122.759 102.751C121.492 99.2055 123.31 91.7596 124.479 85.1411Z" fill="black"/>
	<path opacity="0.2" d="M143.297 111.852C143.238 113.06 143.186 114.222 143.14 115.318C138.288 115.003 120.271 114.754 115.32 107.636C112.424 103.467 113.842 86.4675 113.842 86.4675C115.618 92.3253 118.865 97.6306 123.273 101.878C127.681 106.125 133.103 109.172 139.023 110.729L143.297 111.852Z" fill="black"/>
	<path d="M170.126 92.4294C168.012 92.3046 165.897 92.1864 163.855 91.996C162.851 91.8975 161.833 91.7925 160.973 91.6611L160.572 91.5889C160.52 91.5253 160.463 91.466 160.402 91.4116C159.962 90.9914 159.285 90.2889 158.675 89.5732C158.064 88.8575 157.408 88.063 156.771 87.2685C155.49 85.6861 154.223 84.0249 152.956 82.3571C150.434 79.0151 147.893 75.581 145.333 72.2718L136.797 78.4307C139.305 82.0682 141.951 85.4891 144.794 88.8706C146.213 90.5581 147.677 92.2127 149.226 93.8673C150.014 94.6881 150.815 95.4957 151.682 96.323C152.622 97.2394 153.627 98.0865 154.689 98.8575C155.004 99.0807 155.346 99.3237 155.838 99.5863L156.226 99.7964L156.712 100.013C156.869 100.079 157.132 100.171 157.368 100.236L157.598 100.295L157.795 100.341C158.564 100.508 159.346 100.605 160.132 100.63C161.406 100.696 162.542 100.63 163.685 100.63C165.943 100.532 168.13 100.368 170.31 100.144C172.98 99.873 175.635 99.5491 178.274 99.1726L178.99 98.8509L179.647 98.5423C179.785 98.3482 179.912 98.1465 180.027 97.9382C180.467 97.2028 180.933 96.3033 181.38 95.3841C181.734 94.6618 182.096 93.9133 182.437 93.1516C178.333 92.843 174.197 92.6592 170.126 92.4294ZM160.119 91.4576H160.159C160.244 91.4781 160.327 91.5044 160.408 91.5364H160.48C160.357 91.5263 160.236 91.4998 160.119 91.4576Z" fill="url(#paint26_linear_68_4224)"/>
	<path opacity="0.2" d="M146.456 90.7879L144.972 80.5121L144.67 88.713L146.456 90.7879Z" fill="black"/>
	<path d="M136.344 46.1391C135.119 45.7769 133.832 45.6698 132.564 45.8246C131.296 45.9793 130.073 46.3925 128.97 47.0386C127.526 47.9119 126.305 49.1791 126.449 50.9782C126.886 54.6926 127.531 58.3797 128.38 62.0222L142.024 54.7996C142.024 54.7996 142.831 51.254 141.045 49.1332C139.83 47.6683 138.186 46.6212 136.344 46.1391Z" fill="#263238"/>
	<path d="M131.078 46.126C130.225 46.1207 129.379 46.2931 128.596 46.6322C127.813 46.9714 127.108 47.4698 126.528 48.0958C125.038 49.8358 126.876 54.3007 126.876 54.3007L131.078 46.126Z" fill="#263238"/>
	<path d="M129.693 46.6513C129.693 46.6513 130.219 44.8194 135.787 44.8194C141.355 44.8194 144.749 44.7537 144.047 47.9645C143.121 52.2193 136.312 50.6631 136.312 50.6631L129.693 46.6513Z" fill="#263238"/>
	<path d="M134.841 66.7891V66.8351L134.099 69.1923C134.028 69.6704 134 70.1537 134.013 70.6368C134.028 71.0266 134.07 71.415 134.138 71.799C134.631 72.5409 134.795 74.1824 132.943 74.1036C130.586 74.0117 126.377 70.5908 126.285 69.5468C127.52 66.382 128.636 62.449 128.603 59.3696L131.151 62.3965L134.841 66.7891Z" fill="#FFC3BD"/>
	<g opacity="0.2">
		<path d="M134.821 66.8417L134.079 69.1989C132.641 68.4635 131.164 66.9402 130.888 65.3578C130.691 64.2218 131.249 63.1844 131.709 63.145L134.821 66.8417Z" fill="black"/>
	</g>
	<path d="M141.006 62.1207C140.842 62.6329 140.665 63.1319 140.474 63.6309C138.787 68.0104 133.252 68.168 130.015 64.734C129.719 64.4193 129.447 64.0836 129.2 63.7294C127.165 60.7813 127.808 58.6079 128.36 53.644C128.475 52.4881 128.884 51.3809 129.548 50.4277C130.212 49.4745 131.109 48.707 132.154 48.1983C133.198 47.6896 134.355 47.4566 135.515 47.5214C136.675 47.5862 137.799 47.9467 138.78 48.5685C142.825 51.1227 142.641 56.9927 141.006 62.1207Z" fill="#FFC3BD"/>
	<path d="M134.913 59.908C135.958 60.5079 137.034 61.0514 138.137 61.5364C137.997 61.7435 137.816 61.9193 137.605 62.053C137.394 62.1866 137.158 62.275 136.911 62.3126C136.664 62.3503 136.413 62.3363 136.171 62.2716C135.93 62.207 135.705 62.093 135.51 61.9369C135.219 61.6973 135.007 61.3759 134.9 61.0142C134.793 60.6525 134.798 60.2672 134.913 59.908Z" fill="white"/>
	<path d="M139.168 48.0696C136.863 46.369 132.109 45.8306 130.08 48.0696C128.052 50.3086 128.275 54.0709 128.275 54.0709C128.272 54.4794 128.424 54.8738 128.702 55.174C128.759 55.2289 128.811 55.2882 128.859 55.3512L131.315 55.6008C131.446 54.583 131.735 52.7314 132.411 52.5935C133.685 52.3309 132.72 50.9717 132.95 50.1641C133.679 47.5377 140.829 48.8509 141.847 52.7446C141.552 50.9123 140.6 49.2502 139.168 48.0696Z" fill="#263238"/>
	<path d="M125.667 56.5396C125.81 57.7868 126.44 58.9268 127.42 59.711C128.734 60.7419 130.047 59.711 130.191 58.1549C130.342 56.7432 129.843 54.5107 128.274 54.0905C127.928 54.0023 127.565 54.0025 127.218 54.0911C126.872 54.1797 126.553 54.3539 126.292 54.5977C126.03 54.8415 125.834 55.1471 125.722 55.4864C125.609 55.8257 125.584 56.1879 125.648 56.5396" fill="#FFC3BD"/>
	<path d="M135.72 56.1982C135.655 56.579 135.806 56.927 136.055 56.9664C136.305 57.0058 136.561 56.7366 136.627 56.3558C136.692 55.975 136.541 55.627 136.292 55.5876C136.042 55.5482 135.786 55.8174 135.72 56.1982Z" fill="#263238"/>
	<path d="M139.759 56.8877C139.693 57.2685 139.838 57.6165 140.087 57.6559C140.337 57.6953 140.593 57.4261 140.659 57.0453C140.724 56.6645 140.58 56.3165 140.33 56.2771C140.081 56.2377 139.825 56.5069 139.759 56.8877Z" fill="#263238"/>
	<path d="M141.4 55.6401C141.365 55.6341 141.331 55.6188 141.304 55.5957C141.276 55.5727 141.255 55.5426 141.243 55.5088C141.209 55.3692 141.146 55.2385 141.057 55.1253C140.969 55.0121 140.858 54.919 140.731 54.8522C140.468 54.7569 140.179 54.7569 139.916 54.8522C139.868 54.8697 139.814 54.868 139.766 54.8472C139.719 54.8265 139.681 54.7883 139.66 54.7405C139.651 54.7164 139.646 54.6906 139.647 54.6647C139.647 54.6387 139.653 54.6131 139.663 54.5893C139.673 54.5655 139.688 54.544 139.707 54.526C139.726 54.508 139.748 54.4939 139.772 54.4845C140.133 54.3435 140.534 54.3435 140.895 54.4845C141.068 54.5698 141.222 54.6904 141.346 54.8385C141.471 54.9866 141.563 55.1589 141.617 55.3446C141.626 55.3692 141.631 55.3953 141.63 55.4216C141.629 55.4479 141.623 55.4737 141.612 55.4976C141.601 55.5214 141.585 55.5429 141.566 55.5606C141.546 55.5783 141.524 55.5919 141.499 55.6007C141.469 55.6207 141.436 55.6342 141.4 55.6401Z" fill="#263238"/>
	<path d="M134.801 54.4976C134.768 54.4914 134.737 54.478 134.709 54.4582C134.687 54.442 134.668 54.4214 134.653 54.3977C134.639 54.374 134.629 54.3476 134.625 54.3201C134.62 54.2926 134.622 54.2646 134.628 54.2376C134.635 54.2105 134.647 54.1851 134.663 54.1628C134.911 53.8209 135.28 53.5861 135.694 53.5062C135.903 53.4806 136.115 53.499 136.316 53.56C136.517 53.6211 136.704 53.7235 136.863 53.8607C136.889 53.8766 136.911 53.8977 136.929 53.9227C136.946 53.9478 136.958 53.9762 136.963 54.0061C136.969 54.0361 136.968 54.0669 136.961 54.0965C136.954 54.1261 136.941 54.1539 136.922 54.178C136.904 54.2021 136.88 54.2221 136.853 54.2366C136.827 54.251 136.797 54.2597 136.767 54.262C136.736 54.2642 136.706 54.2601 136.677 54.2498C136.648 54.2395 136.622 54.2233 136.6 54.2022C136.487 54.103 136.354 54.028 136.211 53.9818C136.068 53.9355 135.916 53.9189 135.766 53.933C135.468 53.996 135.201 54.1608 135.011 54.3991C134.99 54.4344 134.958 54.4625 134.921 54.48C134.884 54.4975 134.842 54.5037 134.801 54.4976Z" fill="#263238"/>
	<path d="M138.347 56.1326C138.528 57.1387 138.835 58.1182 139.26 59.0479C139.871 60.2297 137.743 59.908 137.743 59.908L138.347 56.1326Z" fill="#ED847E"/>
	<path d="M148.957 109.494L148.478 114.202C143.593 114.239 138.711 113.934 133.868 113.289C131.372 112.972 128.897 112.507 126.455 111.897C125.148 111.581 123.863 111.179 122.608 110.696C121.909 110.428 121.225 110.124 120.559 109.783C119.769 109.387 119.021 108.912 118.327 108.365C118.123 108.194 117.933 108.043 117.723 107.84L117.407 107.544L117.092 107.196C116.872 106.943 116.666 106.678 116.475 106.402C116.257 106.075 116.064 105.733 115.897 105.377C115.706 104.975 115.554 104.555 115.444 104.123L115.293 103.526C115.195 103.138 115.142 102.81 115.063 102.449C114.801 101.064 114.63 99.8226 114.486 98.5094C114.203 96.0012 114.059 93.5521 113.954 91.1161L113.849 87.472V83.8542C113.849 81.4247 113.921 79.0413 114.092 76.5922L124.597 76.973C124.597 81.6086 124.486 86.3295 124.44 90.952C124.44 93.2632 124.44 95.5482 124.44 97.7937C124.44 98.8968 124.512 99.9999 124.61 100.959C124.61 101.162 124.61 101.392 124.669 101.576C125.149 101.934 125.659 102.25 126.193 102.521C127.111 102.994 128.054 103.42 129.016 103.795C131.038 104.596 133.205 105.292 135.405 105.949C139.824 107.268 144.426 108.398 148.957 109.494Z" fill="url(#paint27_linear_68_4224)"/>
	<path d="M148.256 109.599C148.256 109.599 153.141 108.319 154.165 108.529C155.321 108.766 154.789 114.852 153.292 115.686C151.795 116.52 148.078 113.821 148.078 113.821C147.225 111.838 147.494 110.217 148.256 109.599Z" fill="#FFC3BD"/>
	<path d="M148.255 109.599C148.887 108.926 149.646 108.384 150.487 108.004C151.584 107.616 152.661 107.045 153.16 107.242C153.659 107.439 151.952 108.752 151.952 108.752L148.255 109.599Z" fill="#FFC3BD"/>
	<path d="M154.171 108.529C154.171 108.529 157.172 109.376 158.111 110.617C159.05 111.858 156.378 111.103 156.378 111.103C156.378 111.103 159.503 112.246 158.216 114.636C157.559 115.804 153.974 116.034 152.307 115.824C152.353 115.824 152.353 110.735 154.171 108.529Z" fill="#FFC3BD"/>
	<path d="M126.988 67.5836C126.278 67.6276 125.59 67.8436 124.982 68.2131C124.375 68.5826 123.866 69.0945 123.501 69.7044L129.975 77.321C129.975 77.321 129.929 74.5698 133.481 74.038C133.481 74.1036 128.714 70.604 126.988 67.5836Z" fill="url(#paint28_linear_68_4224)"/>
	<path opacity="0.3" d="M126.988 67.5836C126.278 67.6276 125.59 67.8436 124.982 68.2131C124.375 68.5826 123.866 69.0945 123.501 69.7044L129.975 77.321C129.975 77.321 129.929 74.5698 133.481 74.038C133.481 74.1036 128.714 70.604 126.988 67.5836Z" fill="white"/>
	<path d="M133.481 74.1037C133.481 74.1037 133.895 69.8292 134.177 68.9165L134.545 67.7478C134.545 67.7478 137.093 67.7872 137.966 69.061L137.625 75.5745C136.418 74.6886 134.977 74.1772 133.481 74.1037Z" fill="url(#paint29_linear_68_4224)"/>
	<path opacity="0.3" d="M133.481 74.1037C133.481 74.1037 133.895 69.8292 134.177 68.9165L134.545 67.7478C134.545 67.7478 137.093 67.7872 137.966 69.061L137.625 75.5745C136.418 74.6886 134.977 74.1772 133.481 74.1037Z" fill="white"/>
	<defs>
		<linearGradient id="paint0_linear_68_4224" x1="50.54" y1="230.446" x2="83.1593" y2="223.86" gradientUnits="userSpaceOnUse">
			<stop stop-color="#2754C8"/>
			<stop offset="1" stop-color="#110F72"/>
		</linearGradient>
		<linearGradient id="paint1_linear_68_4224" x1="49.2666" y1="213.948" x2="57.9853" y2="198.211" gradientUnits="userSpaceOnUse">
			<stop stop-color="#2754C8"/>
			<stop offset="1" stop-color="#110F72"/>
		</linearGradient>
		<linearGradient id="paint2_linear_68_4224" x1="58.1465" y1="203.896" x2="66.0154" y2="203.636" gradientUnits="userSpaceOnUse">
			<stop stop-color="#2754C8"/>
			<stop offset="1" stop-color="#110F72"/>
		</linearGradient>
		<linearGradient id="paint3_linear_68_4224" x1="61.9082" y1="189.83" x2="74.8561" y2="187.159" gradientUnits="userSpaceOnUse">
			<stop stop-color="#2754C8"/>
			<stop offset="1" stop-color="#110F72"/>
		</linearGradient>
		<linearGradient id="paint4_linear_68_4224" x1="63.1875" y1="200.915" x2="76.1359" y2="198.241" gradientUnits="userSpaceOnUse">
			<stop stop-color="#2754C8"/>
			<stop offset="1" stop-color="#110F72"/>
		</linearGradient>
		<linearGradient id="paint5_linear_68_4224" x1="50.2051" y1="196.46" x2="65.3622" y2="191.085" gradientUnits="userSpaceOnUse">
			<stop stop-color="#2754C8"/>
			<stop offset="1" stop-color="#110F72"/>
		</linearGradient>
		<linearGradient id="paint6_linear_68_4224" x1="50.9277" y1="206.562" x2="66.0831" y2="201.185" gradientUnits="userSpaceOnUse">
			<stop stop-color="#2754C8"/>
			<stop offset="1" stop-color="#110F72"/>
		</linearGradient>
		<linearGradient id="paint7_linear_68_4224" x1="54.3311" y1="182.449" x2="64.4472" y2="181.18" gradientUnits="userSpaceOnUse">
			<stop stop-color="#2754C8"/>
			<stop offset="1" stop-color="#110F72"/>
		</linearGradient>
		<linearGradient id="paint8_linear_68_4224" x1="225.195" y1="152.439" x2="247.863" y2="148.198" gradientUnits="userSpaceOnUse">
			<stop stop-color="#2754C8"/>
			<stop offset="1" stop-color="#110F72"/>
		</linearGradient>
		<linearGradient id="paint9_linear_68_4224" x1="74.1914" y1="49.805" x2="96.8462" y2="45.5775" gradientUnits="userSpaceOnUse">
			<stop stop-color="#2754C8"/>
			<stop offset="1" stop-color="#110F72"/>
		</linearGradient>
		<linearGradient id="paint10_linear_68_4224" x1="102.28" y1="52.2295" x2="189.51" y2="35.3274" gradientUnits="userSpaceOnUse">
			<stop stop-color="#2754C8"/>
			<stop offset="1" stop-color="#110F72"/>
		</linearGradient>
		<linearGradient id="paint11_linear_68_4224" x1="142.455" y1="52.1838" x2="260.681" y2="20.0156" gradientUnits="userSpaceOnUse">
			<stop stop-color="#2754C8"/>
			<stop offset="1" stop-color="#110F72"/>
		</linearGradient>
		<linearGradient id="paint12_linear_68_4224" x1="174.943" y1="235.353" x2="187.855" y2="225.294" gradientUnits="userSpaceOnUse">
			<stop stop-color="#2754C8"/>
			<stop offset="1" stop-color="#110F72"/>
		</linearGradient>
		<linearGradient id="paint13_linear_68_4224" x1="184.494" y1="201.217" x2="213.735" y2="200.135" gradientUnits="userSpaceOnUse">
			<stop stop-color="#2754C8"/>
			<stop offset="1" stop-color="#110F72"/>
		</linearGradient>
		<linearGradient id="paint14_linear_68_4224" x1="198.172" y1="235.353" x2="211.085" y2="225.288" gradientUnits="userSpaceOnUse">
			<stop stop-color="#2754C8"/>
			<stop offset="1" stop-color="#110F72"/>
		</linearGradient>
		<linearGradient id="paint15_linear_68_4224" x1="200.402" y1="201.351" x2="229.64" y2="200.263" gradientUnits="userSpaceOnUse">
			<stop stop-color="#2754C8"/>
			<stop offset="1" stop-color="#110F72"/>
		</linearGradient>
		<linearGradient id="paint16_linear_68_4224" x1="199.043" y1="79.7729" x2="200.045" y2="79.5787" gradientUnits="userSpaceOnUse">
			<stop stop-color="#2754C8"/>
			<stop offset="1" stop-color="#110F72"/>
		</linearGradient>
		<linearGradient id="paint17_linear_68_4224" x1="198.8" y1="83.2842" x2="199.811" y2="83.0884" gradientUnits="userSpaceOnUse">
			<stop stop-color="#2754C8"/>
			<stop offset="1" stop-color="#110F72"/>
		</linearGradient>
		<linearGradient id="paint18_linear_68_4224" x1="198.807" y1="86.8511" x2="199.809" y2="86.657" gradientUnits="userSpaceOnUse">
			<stop stop-color="#2754C8"/>
			<stop offset="1" stop-color="#110F72"/>
		</linearGradient>
		<linearGradient id="paint19_linear_68_4224" x1="199.312" y1="75.3286" x2="214.466" y2="71.0436" gradientUnits="userSpaceOnUse">
			<stop stop-color="#2754C8"/>
			<stop offset="1" stop-color="#110F72"/>
		</linearGradient>
		<linearGradient id="paint20_linear_68_4224" x1="199.312" y1="75.3286" x2="214.466" y2="71.0436" gradientUnits="userSpaceOnUse">
			<stop stop-color="#2754C8"/>
			<stop offset="1" stop-color="#110F72"/>
		</linearGradient>
		<linearGradient id="paint21_linear_68_4224" x1="195.556" y1="75.4358" x2="201.884" y2="74.6919" gradientUnits="userSpaceOnUse">
			<stop stop-color="#2754C8"/>
			<stop offset="1" stop-color="#110F72"/>
		</linearGradient>
		<linearGradient id="paint22_linear_68_4224" x1="195.556" y1="75.4358" x2="201.884" y2="74.6919" gradientUnits="userSpaceOnUse">
			<stop stop-color="#2754C8"/>
			<stop offset="1" stop-color="#110F72"/>
		</linearGradient>
		<linearGradient id="paint23_linear_68_4224" x1="125.754" y1="224.631" x2="133.894" y2="219.421" gradientUnits="userSpaceOnUse">
			<stop stop-color="#2754C8"/>
			<stop offset="1" stop-color="#110F72"/>
		</linearGradient>
		<linearGradient id="paint24_linear_68_4224" x1="91.4063" y1="223.324" x2="101.206" y2="219.115" gradientUnits="userSpaceOnUse">
			<stop stop-color="#2754C8"/>
			<stop offset="1" stop-color="#110F72"/>
		</linearGradient>
		<linearGradient id="paint25_linear_68_4224" x1="107.828" y1="115.103" x2="158.473" y2="108.803" gradientUnits="userSpaceOnUse">
			<stop stop-color="#2754C8"/>
			<stop offset="1" stop-color="#110F72"/>
		</linearGradient>
		<linearGradient id="paint26_linear_68_4224" x1="136.797" y1="94.2672" x2="192.643" y2="76.8764" gradientUnits="userSpaceOnUse">
			<stop stop-color="#2754C8"/>
			<stop offset="1" stop-color="#110F72"/>
		</linearGradient>
		<linearGradient id="paint27_linear_68_4224" x1="113.849" y1="105.736" x2="159.482" y2="97.4853" gradientUnits="userSpaceOnUse">
			<stop stop-color="#2754C8"/>
			<stop offset="1" stop-color="#110F72"/>
		</linearGradient>
		<linearGradient id="paint28_linear_68_4224" x1="123.501" y1="75.1283" x2="136.389" y2="72.5697" gradientUnits="userSpaceOnUse">
			<stop stop-color="#2754C8"/>
			<stop offset="1" stop-color="#110F72"/>
		</linearGradient>
		<linearGradient id="paint29_linear_68_4224" x1="133.481" y1="73.8121" x2="139.428" y2="73.1521" gradientUnits="userSpaceOnUse">
			<stop stop-color="#2754C8"/>
			<stop offset="1" stop-color="#110F72"/>
		</linearGradient>
	</defs>
</svg>
