<svg width="20" height="20" viewBox="0 0 20 20" fill="none" xmlns="http://www.w3.org/2000/svg">
<mask id="path-1-inside-1_72_21125" fill="white">
<path fill-rule="evenodd" clip-rule="evenodd" d="M7.25 1.25C6.69772 1.25 6.25 1.69772 6.25 2.25V9.38043C6.25 9.93272 6.69772 10.3804 7.25 10.3804H12.75C13.3023 10.3804 13.75 9.93272 13.75 9.38043V2.25C13.75 1.69772 13.3023 1.25 12.75 1.25H7.25ZM7.82609 3.85869C7.64599 3.85869 7.5 4.00468 7.5 4.18478C7.5 4.36487 7.64599 4.51086 7.82609 4.51086H12.1739C12.354 4.51086 12.5 4.36487 12.5 4.18478C12.5 4.00468 12.354 3.85869 12.1739 3.85869H7.82609ZM7.5 5.48924C7.5 5.30915 7.64599 5.16315 7.82609 5.16315H12.1739C12.354 5.16315 12.5 5.30915 12.5 5.48924C12.5 5.66933 12.354 5.81533 12.1739 5.81533H7.82609C7.64599 5.81533 7.5 5.66933 7.5 5.48924ZM7.82609 6.46743C7.64599 6.46743 7.5 6.61342 7.5 6.79351C7.5 6.97361 7.64599 7.1196 7.82609 7.1196H12.1739C12.354 7.1196 12.5 6.97361 12.5 6.79351C12.5 6.61342 12.354 6.46743 12.1739 6.46743H7.82609ZM7.5 8.09793C7.5 7.91784 7.64599 7.77184 7.82609 7.77184H12.1739C12.354 7.77184 12.5 7.91784 12.5 8.09793C12.5 8.27802 12.354 8.42402 12.1739 8.42402H7.82609C7.64599 8.42402 7.5 8.27802 7.5 8.09793ZM2.875 5.81524H5V11.337C5 11.8892 5.44772 12.337 6 12.337H14C14.5523 12.337 15 11.8892 15 11.337V5.81524H17.125C17.6773 5.81524 18.125 6.26296 18.125 6.81524V15.25C18.125 15.8023 17.6773 16.25 17.125 16.25H2.875C2.32272 16.25 1.875 15.8023 1.875 15.25V6.81524C1.875 6.26296 2.32272 5.81524 2.875 5.81524Z"/>
</mask>
<path fill-rule="evenodd" clip-rule="evenodd" d="M7.25 1.25C6.69772 1.25 6.25 1.69772 6.25 2.25V9.38043C6.25 9.93272 6.69772 10.3804 7.25 10.3804H12.75C13.3023 10.3804 13.75 9.93272 13.75 9.38043V2.25C13.75 1.69772 13.3023 1.25 12.75 1.25H7.25ZM7.82609 3.85869C7.64599 3.85869 7.5 4.00468 7.5 4.18478C7.5 4.36487 7.64599 4.51086 7.82609 4.51086H12.1739C12.354 4.51086 12.5 4.36487 12.5 4.18478C12.5 4.00468 12.354 3.85869 12.1739 3.85869H7.82609ZM7.5 5.48924C7.5 5.30915 7.64599 5.16315 7.82609 5.16315H12.1739C12.354 5.16315 12.5 5.30915 12.5 5.48924C12.5 5.66933 12.354 5.81533 12.1739 5.81533H7.82609C7.64599 5.81533 7.5 5.66933 7.5 5.48924ZM7.82609 6.46743C7.64599 6.46743 7.5 6.61342 7.5 6.79351C7.5 6.97361 7.64599 7.1196 7.82609 7.1196H12.1739C12.354 7.1196 12.5 6.97361 12.5 6.79351C12.5 6.61342 12.354 6.46743 12.1739 6.46743H7.82609ZM7.5 8.09793C7.5 7.91784 7.64599 7.77184 7.82609 7.77184H12.1739C12.354 7.77184 12.5 7.91784 12.5 8.09793C12.5 8.27802 12.354 8.42402 12.1739 8.42402H7.82609C7.64599 8.42402 7.5 8.27802 7.5 8.09793ZM2.875 5.81524H5V11.337C5 11.8892 5.44772 12.337 6 12.337H14C14.5523 12.337 15 11.8892 15 11.337V5.81524H17.125C17.6773 5.81524 18.125 6.26296 18.125 6.81524V15.25C18.125 15.8023 17.6773 16.25 17.125 16.25H2.875C2.32272 16.25 1.875 15.8023 1.875 15.25V6.81524C1.875 6.26296 2.32272 5.81524 2.875 5.81524Z" fill="#2754C8"/>
<path d="M5 5.81524H6V4.81524H5V5.81524ZM15 5.81524V4.81524H14V5.81524H15ZM7.25 2.25V2.25V0.25C6.14543 0.25 5.25 1.14543 5.25 2.25H7.25ZM7.25 9.38043V2.25H5.25V9.38043H7.25ZM7.25 9.38043H5.25C5.25 10.485 6.14543 11.3804 7.25 11.3804V9.38043ZM12.75 9.38043H7.25V11.3804H12.75V9.38043ZM12.75 9.38043V11.3804C13.8546 11.3804 14.75 10.485 14.75 9.38043H12.75ZM12.75 2.25V9.38043H14.75V2.25H12.75ZM12.75 2.25H14.75C14.75 1.14543 13.8546 0.25 12.75 0.25V2.25ZM7.25 2.25H12.75V0.25H7.25V2.25ZM8.5 4.18478C8.5 4.55697 8.19828 4.85869 7.82609 4.85869V2.85869C7.09371 2.85869 6.5 3.4524 6.5 4.18478H8.5ZM7.82609 3.51086C8.19828 3.51086 8.5 3.81258 8.5 4.18478H6.5C6.5 4.91715 7.09371 5.51086 7.82609 5.51086V3.51086ZM12.1739 3.51086H7.82609V5.51086H12.1739V3.51086ZM11.5 4.18478C11.5 3.81258 11.8017 3.51086 12.1739 3.51086V5.51086C12.9063 5.51086 13.5 4.91715 13.5 4.18478H11.5ZM12.1739 4.85869C11.8017 4.85869 11.5 4.55697 11.5 4.18478H13.5C13.5 3.4524 12.9063 2.85869 12.1739 2.85869V4.85869ZM7.82609 4.85869H12.1739V2.85869H7.82609V4.85869ZM7.82609 4.16315C7.09371 4.16315 6.5 4.75686 6.5 5.48924H8.5C8.5 5.86143 8.19828 6.16315 7.82609 6.16315V4.16315ZM12.1739 4.16315H7.82609V6.16315H12.1739V4.16315ZM13.5 5.48924C13.5 4.75686 12.9063 4.16315 12.1739 4.16315V6.16315C11.8017 6.16315 11.5 5.86143 11.5 5.48924H13.5ZM12.1739 6.81533C12.9063 6.81533 13.5 6.22162 13.5 5.48924H11.5C11.5 5.11705 11.8017 4.81533 12.1739 4.81533V6.81533ZM7.82609 6.81533H12.1739V4.81533H7.82609V6.81533ZM6.5 5.48924C6.5 6.22162 7.09371 6.81533 7.82609 6.81533V4.81533C8.19828 4.81533 8.5 5.11705 8.5 5.48924H6.5ZM8.5 6.79351C8.5 7.16571 8.19828 7.46743 7.82609 7.46743V5.46743C7.09371 5.46743 6.5 6.06113 6.5 6.79351H8.5ZM7.82609 6.1196C8.19828 6.1196 8.5 6.42132 8.5 6.79351H6.5C6.5 7.52589 7.09371 8.1196 7.82609 8.1196V6.1196ZM12.1739 6.1196H7.82609V8.1196H12.1739V6.1196ZM11.5 6.79351C11.5 6.42132 11.8017 6.1196 12.1739 6.1196V8.1196C12.9063 8.1196 13.5 7.52589 13.5 6.79351H11.5ZM12.1739 7.46743C11.8017 7.46743 11.5 7.16571 11.5 6.79351H13.5C13.5 6.06113 12.9063 5.46743 12.1739 5.46743V7.46743ZM7.82609 7.46743H12.1739V5.46743H7.82609V7.46743ZM7.82609 6.77184C7.09371 6.77184 6.5 7.36555 6.5 8.09793H8.5C8.5 8.47012 8.19828 8.77184 7.82609 8.77184V6.77184ZM12.1739 6.77184H7.82609V8.77184H12.1739V6.77184ZM13.5 8.09793C13.5 7.36555 12.9063 6.77184 12.1739 6.77184V8.77184C11.8017 8.77184 11.5 8.47012 11.5 8.09793H13.5ZM12.1739 9.42402C12.9063 9.42402 13.5 8.83031 13.5 8.09793H11.5C11.5 7.72574 11.8017 7.42402 12.1739 7.42402V9.42402ZM7.82609 9.42402H12.1739V7.42402H7.82609V9.42402ZM6.5 8.09793C6.5 8.83031 7.09371 9.42402 7.82609 9.42402V7.42402C8.19828 7.42402 8.5 7.72574 8.5 8.09793H6.5ZM5 4.81524H2.875V6.81524H5V4.81524ZM6 11.337V5.81524H4V11.337H6ZM6 11.337H4C4 12.4415 4.89543 13.337 6 13.337V11.337ZM14 11.337H6V13.337H14V11.337ZM14 11.337V13.337C15.1046 13.337 16 12.4415 16 11.337H14ZM14 5.81524V11.337H16V5.81524H14ZM17.125 4.81524H15V6.81524H17.125V4.81524ZM19.125 6.81524C19.125 5.71067 18.2296 4.81524 17.125 4.81524V6.81524H19.125ZM19.125 15.25V6.81524H17.125V15.25H19.125ZM17.125 17.25C18.2296 17.25 19.125 16.3546 19.125 15.25H17.125V17.25ZM2.875 17.25H17.125V15.25H2.875V17.25ZM0.875 15.25C0.875 16.3546 1.77043 17.25 2.875 17.25V15.25H2.875H0.875ZM0.875 6.81524V15.25H2.875V6.81524H0.875ZM2.875 4.81524C1.77043 4.81524 0.875 5.71067 0.875 6.81524H2.875V4.81524Z" fill="#2754C8" mask="url(#path-1-inside-1_72_21125)"/>
</svg>
