<svg width="25" height="24" viewBox="0 0 25 24" fill="none" xmlns="http://www.w3.org/2000/svg">
	<path fill-rule="evenodd" clip-rule="evenodd" d="M18.5162 8.46131H16.7533C15.9599 8.46131 15.4824 9.34104 15.9149 10.0063L18.9472 14.6714C19.3415 15.2781 20.2297 15.2781 20.6241 14.6714L23.6564 10.0063C24.0888 9.34104 23.6114 8.46131 22.8179 8.46131H20.8352C20.5795 7.8049 20.2522 7.17487 19.8568 6.58319C18.7855 4.97982 17.2627 3.73013 15.4812 2.99218C13.6996 2.25422 11.7392 2.06114 9.84787 2.43735C7.95656 2.81355 6.21927 3.74215 4.85571 5.10571C3.49215 6.46928 2.56355 8.20656 2.18735 10.0979C1.81114 11.9892 2.00422 13.9496 2.74218 15.7312C3.48013 17.5127 4.72982 19.0355 6.33319 20.1068C7.64253 20.9817 9.1397 21.5235 10.6949 21.6928C11.2753 21.7559 11.75 21.2767 11.75 20.6929C11.75 20.109 11.2745 19.6432 10.6962 19.5627C9.55996 19.4043 8.46923 18.9913 7.50783 18.3489C6.25214 17.5098 5.27345 16.3173 4.69552 14.9221C4.11759 13.5268 3.96638 11.9915 4.261 10.5103C4.55563 9.02917 5.28286 7.66861 6.35074 6.60074C7.41861 5.53286 8.77916 4.80563 10.2603 4.511C11.7415 4.21638 13.2768 4.36759 14.6721 4.94552C16.0673 5.52345 17.2598 6.50214 18.0989 7.75783C18.251 7.98544 18.3902 8.22031 18.5162 8.46131Z" fill="url(#paint0_linear_68_12489)"/>
	<defs>
		<linearGradient id="paint0_linear_68_12489" x1="2" y1="17.319" x2="29.9673" y2="11.2416" gradientUnits="userSpaceOnUse">
			<stop stop-color="#2754C8"/>
			<stop offset="1" stop-color="#110F72"/>
		</linearGradient>
	</defs>
</svg>
