<svg width="20" height="20" viewBox="0 0 20 20" fill="none" xmlns="http://www.w3.org/2000/svg">
<path fill-rule="evenodd" clip-rule="evenodd" d="M15.625 8.125C15.625 8.48495 15.5912 8.837 15.5266 9.17815C17.4938 10.0377 18.75 11.3465 18.75 12.8125C18.75 15.4013 14.8325 17.5 10 17.5C5.16751 17.5 1.25 15.4013 1.25 12.8125C1.25 11.3465 2.50621 10.0377 4.47342 9.17815C4.40881 8.837 4.375 8.48495 4.375 8.125C4.375 5.0184 6.8934 2.5 10 2.5C13.1066 2.5 15.625 5.0184 15.625 8.125ZM9.74087 15.542L5.4717 10.3793H8.15223V7.50002H11.3293V10.3793H14.01L9.74087 15.542Z" fill="#2754C8"/>
</svg>
