<svg width="24" height="24" viewBox="0 0 24 24" fill="none" xmlns="http://www.w3.org/2000/svg">
<path fill-rule="evenodd" clip-rule="evenodd" d="M12.9501 2.25C13.1568 2.25 13.3615 2.25822 13.564 2.27436L10.402 7.68033C9.84436 8.63378 10.1652 9.85879 11.1187 10.4165L13.7537 11.9577C14.7072 12.5154 15.9322 12.1946 16.4899 11.2411L19.5367 6.03202C20.1962 7.16015 20.5741 8.47292 20.5741 9.87396C20.5741 14.0846 17.1607 17.4979 12.9501 17.4979C12.5301 17.4979 12.1179 17.4639 11.7163 17.3986C11.699 17.4268 11.6808 17.4548 11.6619 17.4824L9.32791 20.8923C8.70402 21.8038 7.45934 22.037 6.54784 21.4131L4.81559 20.2274C3.9041 19.6035 3.67095 18.3588 4.29485 17.4473L6.59495 14.0869C5.79324 12.88 5.32617 11.4315 5.32617 9.87396C5.32617 5.66336 8.73953 2.25 12.9501 2.25Z" fill="#2754C8"/>
</svg>
