<svg width="80" height="80" viewBox="0 0 80 80" fill="none" xmlns="http://www.w3.org/2000/svg">
<rect x="0.5" y="0.5" width="79" height="79" rx="39.5" fill="#FFEEEE"/>
<rect x="0.5" y="0.5" width="79" height="79" rx="39.5" stroke="#DC362E"/>
<path fill-rule="evenodd" clip-rule="evenodd" d="M27.4966 27.4966C28.1588 26.8345 29.2325 26.8345 29.8947 27.4966L40 37.602L50.1053 27.4966C50.7675 26.8345 51.8412 26.8345 52.5034 27.4966C53.1655 28.1588 53.1655 29.2325 52.5034 29.8947L42.398 40L52.5034 50.1053C53.1655 50.7675 53.1655 51.8412 52.5034 52.5034C51.8412 53.1655 50.7675 53.1655 50.1053 52.5034L40 42.398L29.8947 52.5034C29.2325 53.1655 28.1588 53.1655 27.4966 52.5034C26.8345 51.8412 26.8345 50.7675 27.4966 50.1053L37.602 40L27.4966 29.8947C26.8345 29.2325 26.8345 28.1588 27.4966 27.4966Z" fill="#DC362E"/>
</svg>
