<svg width="18" height="18" viewBox="0 0 18 18" fill="none" xmlns="http://www.w3.org/2000/svg">
<path fill-rule="evenodd" clip-rule="evenodd" d="M0.5 -1.5C-0.604569 -1.5 -1.5 -0.60457 -1.5 0.5V17.5C-1.5 18.6046 -0.60457 19.5 0.5 19.5H17.5C18.6046 19.5 19.5 18.6046 19.5 17.5V0.5C19.5 -0.604569 18.6046 -1.5 17.5 -1.5H0.5ZM10.2463 16.5H10.4534V3.97934C10.4534 3.48347 10.3775 3.07713 10.2256 2.76033C10.0738 2.44353 9.87367 2.19559 9.62522 2.01653C9.37678 1.82369 9.09383 1.69284 8.77637 1.62397C8.45891 1.54132 8.13455 1.5 7.80329 1.5H7.47203V14.0413C7.47203 14.551 7.54794 14.9642 7.69977 15.281C7.8654 15.5978 8.07244 15.8457 8.32088 16.0248C8.58313 16.2039 8.87989 16.3278 9.21115 16.3967C9.54241 16.4656 9.88747 16.5 10.2463 16.5ZM3.12422 2.84298C3.04141 3.07713 3 3.31129 3 3.54545C3 3.98623 3.08282 4.33746 3.24845 4.59917C3.41408 4.86088 3.61421 5.06749 3.84886 5.21901C4.0835 5.37052 4.33195 5.47383 4.59419 5.52892C4.85644 5.57025 5.08418 5.59091 5.27742 5.59091C5.44305 5.59091 5.58108 5.57713 5.6915 5.54959V4.53719C5.6915 4.27548 5.76051 4.08264 5.89854 3.95868C6.03656 3.82094 6.20909 3.75207 6.41613 3.75207C6.66458 3.75207 6.88542 3.83471 7.07865 4C7.12006 3.88981 7.14077 3.79339 7.14077 3.71074C7.15457 3.61432 7.16147 3.51102 7.16147 3.40083C7.16147 3.23554 7.12006 3.04959 7.03725 2.84298C6.96823 2.62259 6.85091 2.42286 6.68528 2.2438C6.53345 2.05096 6.32641 1.89256 6.06417 1.76859C5.80192 1.63085 5.48446 1.56198 5.11179 1.56198C4.75292 1.56198 4.44237 1.62397 4.18012 1.74793C3.91787 1.85813 3.69703 2.00964 3.5176 2.20248C3.33816 2.39532 3.20704 2.60882 3.12422 2.84298ZM14.6977 4.59917C14.8633 4.33746 14.9461 3.98623 14.9461 3.54545C14.9461 3.32507 14.8978 3.0978 14.8012 2.86364C14.7184 2.6157 14.5872 2.4022 14.4078 2.22314C14.2422 2.0303 14.0213 1.8719 13.7453 1.74793C13.483 1.62397 13.1656 1.56198 12.7929 1.56198C12.434 1.56198 12.1235 1.63085 11.8612 1.76859C11.6128 1.89256 11.4058 2.05096 11.2401 2.2438C11.0883 2.42286 10.971 2.62259 10.8882 2.84298C10.8191 3.04959 10.7846 3.23554 10.7846 3.40083V3.71074C10.7984 3.79339 10.826 3.88981 10.8675 4C11.0469 3.83471 11.2677 3.75207 11.53 3.75207C11.737 3.75207 11.9095 3.82094 12.0476 3.95868C12.1856 4.09642 12.2546 4.30992 12.2546 4.59917V5.54959C12.365 5.57713 12.5031 5.59091 12.6687 5.59091C12.8619 5.59091 13.0897 5.57025 13.3519 5.52892C13.6142 5.47383 13.8626 5.37052 14.0972 5.21901C14.3319 5.06749 14.532 4.86088 14.6977 4.59917Z" fill="url(#paint0_linear_46_2268)"/>
<defs>
<linearGradient id="paint0_linear_46_2268" x1="-1.5" y1="14.7713" x2="25.6686" y2="9.50899" gradientUnits="userSpaceOnUse">
<stop stop-color="#2754C8"/>
<stop offset="1" stop-color="#110F72"/>
</linearGradient>
</defs>
</svg>
