<svg width="44" height="44" viewBox="0 0 44 44" fill="none" xmlns="http://www.w3.org/2000/svg">
<rect width="44" height="44" rx="22" fill="#EEF2FF"/>
<path d="M20.5564 13.2601L21.3271 13.8974L20.5564 13.2601ZM23.639 13.2601L22.8684 13.8974V13.8974L23.639 13.2601ZM14.024 21.1598L13.2534 20.5225L13.2534 20.5225L14.024 21.1598ZM30.1714 21.1598L30.9421 20.5225V20.5225L30.1714 21.1598ZM21.3271 13.8974C21.727 13.4138 22.4684 13.4138 22.8684 13.8974L24.4097 12.6229C23.2099 11.1719 20.9856 11.1719 19.7858 12.6229L21.3271 13.8974ZM14.7947 21.7971L21.3271 13.8974L19.7858 12.6229L13.2534 20.5225L14.7947 21.7971ZM15.5653 23.4343C14.7193 23.4343 14.2555 22.4491 14.7947 21.7971L13.2534 20.5225C11.6359 22.4786 13.0271 25.4343 15.5653 25.4343V23.4343ZM16.086 23.4343H15.5653V25.4343H16.086V23.4343ZM19.086 29.7056V26.4343H17.086V29.7056H19.086ZM24.1095 30.7056H20.086V32.7056H24.1095V30.7056ZM25.1095 26.4343V29.7055H27.1095V26.4343H25.1095ZM28.6301 23.4343H28.1095V25.4343H28.6301V23.4343ZM29.4008 21.7971C29.94 22.4491 29.4762 23.4343 28.6301 23.4343V25.4343C31.1683 25.4343 32.5596 22.4786 30.9421 20.5225L29.4008 21.7971ZM22.8684 13.8974L29.4008 21.7971L30.9421 20.5225L24.4097 12.6229L22.8684 13.8974ZM27.1095 26.4343C27.1095 25.882 27.5572 25.4343 28.1095 25.4343V23.4343C26.4526 23.4343 25.1095 24.7775 25.1095 26.4343H27.1095ZM24.1095 32.7056C25.7663 32.7056 27.1095 31.3624 27.1095 29.7055H25.1095C25.1095 30.2578 24.6617 30.7056 24.1095 30.7056V32.7056ZM17.086 29.7056C17.086 31.3624 18.4292 32.7056 20.086 32.7056V30.7056C19.5337 30.7056 19.086 30.2578 19.086 29.7056H17.086ZM16.086 25.4343C16.6383 25.4343 17.086 25.882 17.086 26.4343H19.086C19.086 24.7775 17.7429 23.4343 16.086 23.4343V25.4343Z" fill="#2754C8"/>
</svg>
